<svg width="168" height="55" viewBox="0 0 168 55" fill="none" xmlns="http://www.w3.org/2000/svg">
<path d="M0 10C0 4.47715 4.47715 0 10 0H158C163.523 0 168 4.47715 168 10V45C168 50.5228 163.523 55 158 55H10C4.47715 55 0 50.5228 0 45V10Z" fill="#E0E0E0"/>
<path d="M49.704 20.096C48.896 20.096 48.192 19.92 47.592 19.568C47 19.216 46.544 18.712 46.224 18.056C45.904 17.392 45.744 16.612 45.744 15.716C45.744 14.82 45.904 14.048 46.224 13.4C46.544 12.744 47 12.24 47.592 11.888C48.192 11.536 48.896 11.36 49.704 11.36C50.296 11.36 50.836 11.452 51.324 11.636C51.82 11.812 52.248 12.08 52.608 12.44L52.236 13.196C51.828 12.844 51.424 12.592 51.024 12.44C50.632 12.288 50.196 12.212 49.716 12.212C48.78 12.212 48.052 12.516 47.532 13.124C47.02 13.732 46.764 14.596 46.764 15.716C46.764 16.844 47.02 17.716 47.532 18.332C48.044 18.94 48.772 19.244 49.716 19.244C50.196 19.244 50.632 19.168 51.024 19.016C51.424 18.864 51.828 18.612 52.236 18.26L52.608 19.016C52.248 19.376 51.82 19.648 51.324 19.832C50.836 20.008 50.296 20.096 49.704 20.096ZM56.5179 20.084C55.9499 20.084 55.4499 19.956 55.0179 19.7C54.5859 19.444 54.2499 19.08 54.0099 18.608C53.7779 18.136 53.6619 17.584 53.6619 16.952C53.6619 16.32 53.7779 15.768 54.0099 15.296C54.2499 14.824 54.5859 14.46 55.0179 14.204C55.4499 13.948 55.9499 13.82 56.5179 13.82C57.0859 13.82 57.5859 13.948 58.0179 14.204C58.4499 14.46 58.7819 14.824 59.0139 15.296C59.2539 15.768 59.3739 16.32 59.3739 16.952C59.3739 17.584 59.2539 18.136 59.0139 18.608C58.7819 19.08 58.4499 19.444 58.0179 19.7C57.5859 19.956 57.0859 20.084 56.5179 20.084ZM56.5179 19.28C57.1179 19.28 57.5779 19.084 57.8979 18.692C58.2179 18.292 58.3779 17.712 58.3779 16.952C58.3779 16.216 58.2139 15.648 57.8859 15.248C57.5579 14.84 57.1019 14.636 56.5179 14.636C55.9259 14.636 55.4659 14.84 55.1379 15.248C54.8099 15.648 54.6459 16.216 54.6459 16.952C54.6459 17.712 54.8059 18.292 55.1259 18.692C55.4539 19.084 55.9179 19.28 56.5179 19.28ZM67.5851 13.82C68.9211 13.82 69.5891 14.616 69.5891 16.208V20H68.6171V16.256C68.6171 15.688 68.5171 15.276 68.3171 15.02C68.1251 14.764 67.8091 14.636 67.3691 14.636C66.8571 14.636 66.4571 14.808 66.1691 15.152C65.8811 15.496 65.7371 15.964 65.7371 16.556V20H64.7651V16.256C64.7651 15.696 64.6651 15.288 64.4651 15.032C64.2651 14.768 63.9451 14.636 63.5051 14.636C62.9931 14.636 62.5891 14.808 62.2931 15.152C62.0051 15.496 61.8611 15.964 61.8611 16.556V20H60.8891V15.656C60.8891 15.032 60.8571 14.468 60.7931 13.964H61.7171L61.8131 15.02C61.9811 14.636 62.2291 14.34 62.5571 14.132C62.8931 13.924 63.2811 13.82 63.7211 13.82C64.2011 13.82 64.5931 13.916 64.8971 14.108C65.2011 14.3 65.4251 14.596 65.5691 14.996C65.7531 14.636 66.0211 14.352 66.3731 14.144C66.7331 13.928 67.1371 13.82 67.5851 13.82ZM71.436 13.964H72.408V20H71.436V13.964ZM72.528 11.408V12.512H71.34V11.408H72.528ZM77.3074 13.82C78.7554 13.82 79.4794 14.616 79.4794 16.208V20H78.5074V16.256C78.5074 15.696 78.3954 15.288 78.1714 15.032C77.9474 14.768 77.5954 14.636 77.1154 14.636C76.5554 14.636 76.1074 14.808 75.7714 15.152C75.4354 15.496 75.2674 15.96 75.2674 16.544V20H74.2954V15.656C74.2954 15.032 74.2634 14.468 74.1994 13.964H75.1234L75.2194 15.044C75.4034 14.652 75.6794 14.352 76.0474 14.144C76.4154 13.928 76.8354 13.82 77.3074 13.82ZM86.6909 13.964V19.952C86.6909 20.848 86.4589 21.524 85.9949 21.98C85.5389 22.444 84.8629 22.676 83.9669 22.676C83.0469 22.676 82.2549 22.468 81.5909 22.052L81.7589 21.26C82.1429 21.476 82.5029 21.632 82.8389 21.728C83.1829 21.824 83.5589 21.872 83.9669 21.872C84.5509 21.872 84.9909 21.716 85.2869 21.404C85.5829 21.1 85.7309 20.644 85.7309 20.036V18.608C85.5469 18.992 85.2749 19.292 84.9149 19.508C84.5629 19.716 84.1429 19.82 83.6549 19.82C83.1269 19.82 82.6549 19.696 82.2389 19.448C81.8309 19.2 81.5149 18.848 81.2909 18.392C81.0669 17.936 80.9549 17.412 80.9549 16.82C80.9549 16.228 81.0669 15.704 81.2909 15.248C81.5149 14.792 81.8309 14.44 82.2389 14.192C82.6549 13.944 83.1269 13.82 83.6549 13.82C84.1349 13.82 84.5509 13.924 84.9029 14.132C85.2629 14.34 85.5349 14.632 85.7189 15.008V13.964H86.6909ZM83.8469 19.004C84.4309 19.004 84.8869 18.812 85.2149 18.428C85.5509 18.036 85.7189 17.5 85.7189 16.82C85.7189 16.14 85.5509 15.608 85.2149 15.224C84.8869 14.832 84.4309 14.636 83.8469 14.636C83.2549 14.636 82.7869 14.832 82.4429 15.224C82.1069 15.608 81.9389 16.14 81.9389 16.82C81.9389 17.5 82.1069 18.036 82.4429 18.428C82.7869 18.812 83.2549 19.004 83.8469 19.004ZM93.726 20.084C92.71 20.084 91.906 19.824 91.314 19.304L91.638 18.584C91.966 18.84 92.298 19.024 92.634 19.136C92.97 19.248 93.346 19.304 93.762 19.304C94.218 19.304 94.562 19.228 94.794 19.076C95.034 18.916 95.154 18.688 95.154 18.392C95.154 18.152 95.074 17.96 94.914 17.816C94.754 17.672 94.49 17.56 94.122 17.48L93.102 17.24C92.598 17.128 92.206 16.928 91.926 16.64C91.654 16.352 91.518 16.008 91.518 15.608C91.518 15.08 91.73 14.652 92.154 14.324C92.578 13.988 93.138 13.82 93.834 13.82C94.258 13.82 94.658 13.888 95.034 14.024C95.41 14.16 95.726 14.356 95.982 14.612L95.658 15.32C95.09 14.848 94.482 14.612 93.834 14.612C93.402 14.612 93.066 14.696 92.826 14.864C92.594 15.024 92.478 15.252 92.478 15.548C92.478 15.796 92.55 15.992 92.694 16.136C92.846 16.28 93.086 16.392 93.414 16.472L94.434 16.724C94.994 16.852 95.41 17.052 95.682 17.324C95.954 17.588 96.09 17.936 96.09 18.368C96.09 18.888 95.878 19.304 95.454 19.616C95.03 19.928 94.454 20.084 93.726 20.084ZM100.135 20.084C99.5671 20.084 99.0671 19.956 98.6351 19.7C98.2031 19.444 97.8671 19.08 97.6271 18.608C97.3951 18.136 97.2791 17.584 97.2791 16.952C97.2791 16.32 97.3951 15.768 97.6271 15.296C97.8671 14.824 98.2031 14.46 98.6351 14.204C99.0671 13.948 99.5671 13.82 100.135 13.82C100.703 13.82 101.203 13.948 101.635 14.204C102.067 14.46 102.399 14.824 102.631 15.296C102.871 15.768 102.991 16.32 102.991 16.952C102.991 17.584 102.871 18.136 102.631 18.608C102.399 19.08 102.067 19.444 101.635 19.7C101.203 19.956 100.703 20.084 100.135 20.084ZM100.135 19.28C100.735 19.28 101.195 19.084 101.515 18.692C101.835 18.292 101.995 17.712 101.995 16.952C101.995 16.216 101.831 15.648 101.503 15.248C101.175 14.84 100.719 14.636 100.135 14.636C99.5431 14.636 99.0831 14.84 98.7551 15.248C98.4271 15.648 98.2631 16.216 98.2631 16.952C98.2631 17.712 98.4231 18.292 98.7431 18.692C99.0711 19.084 99.5351 19.28 100.135 19.28ZM107.002 20.084C106.434 20.084 105.934 19.956 105.502 19.7C105.07 19.444 104.734 19.08 104.494 18.608C104.262 18.136 104.146 17.584 104.146 16.952C104.146 16.32 104.262 15.768 104.494 15.296C104.734 14.824 105.07 14.46 105.502 14.204C105.934 13.948 106.434 13.82 107.002 13.82C107.57 13.82 108.07 13.948 108.502 14.204C108.934 14.46 109.266 14.824 109.498 15.296C109.738 15.768 109.858 16.32 109.858 16.952C109.858 17.584 109.738 18.136 109.498 18.608C109.266 19.08 108.934 19.444 108.502 19.7C108.07 19.956 107.57 20.084 107.002 20.084ZM107.002 19.28C107.602 19.28 108.062 19.084 108.382 18.692C108.702 18.292 108.862 17.712 108.862 16.952C108.862 16.216 108.698 15.648 108.37 15.248C108.042 14.84 107.586 14.636 107.002 14.636C106.41 14.636 105.95 14.84 105.622 15.248C105.294 15.648 105.13 16.216 105.13 16.952C105.13 17.712 105.29 18.292 105.61 18.692C105.938 19.084 106.402 19.28 107.002 19.28ZM114.386 13.82C115.834 13.82 116.558 14.616 116.558 16.208V20H115.586V16.256C115.586 15.696 115.474 15.288 115.25 15.032C115.026 14.768 114.674 14.636 114.194 14.636C113.634 14.636 113.186 14.808 112.85 15.152C112.514 15.496 112.346 15.96 112.346 16.544V20H111.374V15.656C111.374 15.032 111.342 14.468 111.278 13.964H112.201L112.298 15.044C112.482 14.652 112.758 14.352 113.126 14.144C113.494 13.928 113.914 13.82 114.386 13.82Z" fill="#7D7987"/>
<path d="M56 39.66H49.04L47.6 43H45L51.44 28.76H53.54L60 43H57.42L56 39.66ZM55.14 37.66L52.52 31.56L49.9 37.66H55.14ZM67.12 32.64C67.9867 32.64 68.7533 32.8667 69.42 33.32C70.1 33.76 70.6267 34.3867 71 35.2C71.3867 36 71.58 36.92 71.58 37.96C71.58 39 71.3933 39.9133 71.02 40.7C70.6467 41.4867 70.12 42.0933 69.44 42.52C68.7733 42.9467 68 43.16 67.12 43.16C66.3867 43.16 65.7333 43.0067 65.16 42.7C64.5867 42.38 64.1467 41.94 63.84 41.38V47.32H61.36V35.76C61.36 34.6933 61.3067 33.74 61.2 32.9H63.54L63.74 34.64C64.0067 34.0133 64.44 33.5267 65.04 33.18C65.64 32.82 66.3333 32.64 67.12 32.64ZM66.44 41.2C67.28 41.2 67.9267 40.92 68.38 40.36C68.8333 39.8 69.06 39 69.06 37.96C69.06 36.9067 68.8333 36.0867 68.38 35.5C67.9267 34.9 67.2867 34.6 66.46 34.6C65.6067 34.6 64.9533 34.8867 64.5 35.46C64.0467 36.0333 63.82 36.8533 63.82 37.92C63.82 38.9733 64.0467 39.7867 64.5 40.36C64.9533 40.92 65.6 41.2 66.44 41.2ZM79.5223 32.64C80.389 32.64 81.1557 32.8667 81.8223 33.32C82.5023 33.76 83.029 34.3867 83.4023 35.2C83.789 36 83.9823 36.92 83.9823 37.96C83.9823 39 83.7957 39.9133 83.4223 40.7C83.049 41.4867 82.5223 42.0933 81.8423 42.52C81.1757 42.9467 80.4023 43.16 79.5223 43.16C78.789 43.16 78.1357 43.0067 77.5623 42.7C76.989 42.38 76.549 41.94 76.2423 41.38V47.32H73.7623V35.76C73.7623 34.6933 73.709 33.74 73.6023 32.9H75.9423L76.1423 34.64C76.409 34.0133 76.8423 33.5267 77.4423 33.18C78.0423 32.82 78.7357 32.64 79.5223 32.64ZM78.8423 41.2C79.6823 41.2 80.329 40.92 80.7823 40.36C81.2357 39.8 81.4623 39 81.4623 37.96C81.4623 36.9067 81.2357 36.0867 80.7823 35.5C80.329 34.9 79.689 34.6 78.8623 34.6C78.009 34.6 77.3557 34.8867 76.9023 35.46C76.449 36.0333 76.2223 36.8533 76.2223 37.92C76.2223 38.9733 76.449 39.7867 76.9023 40.36C77.3557 40.92 78.0023 41.2 78.8423 41.2ZM96.653 43.18C95.5596 43.18 94.533 43.0333 93.573 42.74C92.6263 42.4467 91.8196 42.0267 91.153 41.48L92.033 39.6C92.7263 40.12 93.4463 40.5067 94.193 40.76C94.953 41 95.7796 41.12 96.673 41.12C97.6596 41.12 98.4196 40.9467 98.953 40.6C99.4996 40.2533 99.773 39.7667 99.773 39.14C99.773 38.6067 99.5196 38.2 99.013 37.92C98.5196 37.6267 97.6996 37.3533 96.553 37.1C94.7663 36.7133 93.4663 36.2133 92.653 35.6C91.8396 34.9867 91.433 34.0933 91.433 32.92C91.433 32.08 91.6596 31.3333 92.113 30.68C92.5663 30.0267 93.2063 29.5133 94.033 29.14C94.873 28.7667 95.8396 28.58 96.933 28.58C97.933 28.58 98.8796 28.7333 99.773 29.04C100.68 29.3333 101.42 29.7467 101.993 30.28L101.133 32.16C99.8663 31.1467 98.4663 30.64 96.933 30.64C96.013 30.64 95.2863 30.8333 94.753 31.22C94.2196 31.5933 93.953 32.1067 93.953 32.76C93.953 33.32 94.1863 33.7467 94.653 34.04C95.133 34.3333 95.9463 34.6067 97.093 34.86C98.2796 35.14 99.2463 35.4467 99.993 35.78C100.74 36.1 101.313 36.52 101.713 37.04C102.113 37.5467 102.313 38.1867 102.313 38.96C102.313 39.8133 102.086 40.56 101.633 41.2C101.18 41.8267 100.526 42.3133 99.673 42.66C98.8196 43.0067 97.813 43.18 96.653 43.18ZM107.567 34.78V39.3C107.567 40.4867 108.121 41.08 109.227 41.08C109.534 41.08 109.867 41.0267 110.227 40.92V42.9C109.787 43.06 109.254 43.14 108.627 43.14C107.481 43.14 106.601 42.82 105.987 42.18C105.374 41.54 105.067 40.62 105.067 39.42V34.78H103.127V32.9H105.067V30.44L107.567 29.6V32.9H110.247V34.78H107.567ZM116.545 43.16C115.519 43.16 114.612 42.9467 113.825 42.52C113.052 42.0933 112.452 41.4867 112.025 40.7C111.612 39.9 111.405 38.9667 111.405 37.9C111.405 36.8333 111.612 35.9067 112.025 35.12C112.452 34.32 113.052 33.7067 113.825 33.28C114.612 32.8533 115.519 32.64 116.545 32.64C117.559 32.64 118.452 32.8533 119.225 33.28C119.999 33.7067 120.592 34.32 121.005 35.12C121.432 35.9067 121.645 36.8333 121.645 37.9C121.645 38.9667 121.432 39.9 121.005 40.7C120.592 41.4867 119.999 42.0933 119.225 42.52C118.452 42.9467 117.559 43.16 116.545 43.16ZM116.525 41.2C117.379 41.2 118.025 40.9267 118.465 40.38C118.919 39.82 119.145 38.9933 119.145 37.9C119.145 36.82 118.919 36 118.465 35.44C118.012 34.8667 117.372 34.58 116.545 34.58C115.705 34.58 115.059 34.8667 114.605 35.44C114.152 36 113.925 36.82 113.925 37.9C113.925 38.9933 114.145 39.82 114.585 40.38C115.039 40.9267 115.685 41.2 116.525 41.2ZM129.241 32.66C129.628 32.66 129.961 32.7133 130.241 32.82L130.221 35.1C129.795 34.9267 129.355 34.84 128.901 34.84C128.048 34.84 127.395 35.0867 126.941 35.58C126.501 36.0733 126.281 36.7267 126.281 37.54V43H123.801V35.76C123.801 34.6933 123.748 33.74 123.641 32.9H125.981L126.181 34.68C126.435 34.0267 126.835 33.5267 127.381 33.18C127.928 32.8333 128.548 32.66 129.241 32.66ZM140.278 38.08H133.318C133.371 39.16 133.638 39.96 134.118 40.48C134.611 40.9867 135.338 41.24 136.298 41.24C137.405 41.24 138.431 40.88 139.378 40.16L140.098 41.88C139.618 42.2667 139.025 42.58 138.318 42.82C137.625 43.0467 136.918 43.16 136.198 43.16C134.545 43.16 133.245 42.6933 132.298 41.76C131.351 40.8267 130.878 39.5467 130.878 37.92C130.878 36.8933 131.085 35.98 131.498 35.18C131.911 34.38 132.491 33.76 133.238 33.32C133.985 32.8667 134.831 32.64 135.778 32.64C137.165 32.64 138.258 33.0933 139.058 34C139.871 34.8933 140.278 36.1267 140.278 37.7V38.08ZM135.838 34.44C135.171 34.44 134.625 34.64 134.198 35.04C133.785 35.4267 133.518 35.9933 133.398 36.74H138.098C138.018 35.98 137.785 35.4067 137.398 35.02C137.025 34.6333 136.505 34.44 135.838 34.44Z" fill="#7D7987"/>
<path d="M28.4367 28.648C28.4258 26.7832 29.2707 25.3777 30.977 24.3414C30.0227 22.9742 28.5789 22.2223 26.6758 22.0773C24.8738 21.9352 22.9023 23.1273 22.1805 23.1273C21.4176 23.1273 19.673 22.1266 18.3004 22.1266C15.4676 22.1703 12.457 24.3852 12.457 28.8914C12.457 30.223 12.7004 31.5984 13.1871 33.0148C13.8379 34.8797 16.184 39.4488 18.6312 39.375C19.9109 39.3449 20.816 38.4672 22.4812 38.4672C24.0973 38.4672 24.934 39.375 26.3613 39.375C28.8305 39.3395 30.9523 35.1859 31.5703 33.3156C28.259 31.7543 28.4367 28.7438 28.4367 28.648ZM25.5629 20.3082C26.9492 18.6621 26.8234 17.1637 26.7824 16.625C25.5574 16.6961 24.141 17.459 23.3344 18.3969C22.4457 19.4031 21.9234 20.6473 22.0355 22.05C23.359 22.1512 24.5676 21.4703 25.5629 20.3082Z" fill="#7D7987"/>
</svg>
