<svg height="512pt" viewBox="-64 0 512 512.00101" width="512pt" xmlns="http://www.w3.org/2000/svg"><g fill="#273c47"><path d="m360.382812 150.328125h-28.042968v-92.746094h28.042968c8.445313 0 15.296876 6.851563 15.296876 15.296875v62.15625c0 8.445313-6.851563 15.292969-15.296876 15.292969zm0 0"/><path d="m22.898438 119.679688h27.359374v-62.097657h-27.359374c-8.445313 0-15.296876 6.851563-15.296876 15.296875v31.507813c0 8.445312 6.851563 15.292969 15.296876 15.292969zm0 0"/><path d="m22.898438 198.953125h27.6875v-62.097656h-27.6875c-8.445313 0-15.296876 6.847656-15.296876 15.296875v31.507812c0 8.445313 6.851563 15.292969 15.296876 15.292969zm0 0"/></g><path d="m321.683594 7.605469h-260.082032c-17.964843 0-32.527343 14.5625-32.527343 32.527343v431.734376c0 17.964843 14.5625 32.527343 32.527343 32.527343h260.082032c17.964844 0 32.527344-14.5625 32.527344-32.527343v-431.734376c0-17.964843-14.5625-32.527343-32.527344-32.527343zm0 0" fill="#405968"/><path d="m86.699219 504.394531h-25.101563c-17.964844 0-32.523437-14.558593-32.523437-32.523437v-431.742188c0-17.964844 14.558593-32.523437 32.523437-32.523437h25.101563c-17.964844 0-32.523438 14.558593-32.523438 32.523437v431.742188c0 17.964844 14.558594 32.523437 32.523438 32.523437zm0 0" fill="#273c47"/><path d="m29.074219 57.585938h325.132812v377.472656h-325.132812zm0 0" fill="#fff6e3"/><path d="m29.070312 57.582031h25.105469v377.476563h-25.105469zm0 0" fill="#ddd3c3"/><path d="m329.101562 57.582031h25.105469v377.476563h-25.105469zm0 0" fill="#fff"/><path d="m275.765625 181.480469c-.296875 0-.589844.015625-.886719.023437-6.917968-38.929687-40.929687-68.488281-81.847656-68.488281-32.296875 0-60.292969 18.417969-74.058594 45.324219-33.34375.0625-60.359375 27.109375-60.359375 60.472656 0 33.398438 27.074219 60.472656 60.472657 60.472656h73.945312 82.734375c27.007813 0 48.902344-21.894531 48.902344-48.902344 0-27.007812-21.890625-48.902343-48.902344-48.902343zm0 0" fill="#8dc2d3"/><path d="m225.957031 119.796875c-30.011719 1.917969-55.683593 19.75-68.679687 45.148437-33.347656.058594-60.355469 27.109376-60.355469 60.476563 0 23.492187 13.394531 43.847656 32.960937 53.867187h-10.808593c-33.398438 0-60.464844-27.082031-60.464844-60.476562 0-33.355469 27.007813-60.40625 60.351563-60.46875 13.769531-26.90625 41.761718-45.328125 74.0625-45.328125 11.703124 0 22.832031 2.414063 32.933593 6.78125zm0 0" fill="#62a5b5"/><path d="m169.199219 374.8125 22.445312 24.058594 75.53125-80.964844h-34.734375v-71.203125h-81.605468v71.203125h-34.734376l32.371094 34.703125zm0 0" fill="#ef5e72"/><path d="m166.539062 41.003906h50.207032c4.199218 0 7.601562-3.402344 7.601562-7.601562 0-4.199219-3.402344-7.605469-7.601562-7.605469h-50.207032c-4.199218 0-7.605468 3.40625-7.605468 7.605469 0 4.199218 3.40625 7.601562 7.605468 7.601562zm0 0"/><path d="m216.746094 460.050781h-50.207032c-4.199218 0-7.605468 3.402344-7.605468 7.601563 0 4.199218 3.40625 7.605468 7.605468 7.605468h50.207032c4.199218 0 7.601562-3.40625 7.601562-7.605468 0-4.199219-3.402344-7.601563-7.601562-7.601563zm0 0"/><path d="m361.816406 50.027344v-9.894532c0-22.128906-18.003906-40.132812-40.132812-40.132812h-260.082032c-22.128906 0-40.132812 18.003906-40.132812 40.132812v9.894532c-11.960938.742187-21.46875 10.703125-21.46875 22.851562v31.507813c0 12.144531 9.503906 22.105469 21.464844 22.847656v2.066406c-11.960938.746094-21.464844 10.707031-21.464844 22.851563v31.507812c0 12.144532 9.503906 22.105469 21.464844 22.851563l.003906 265.359375c0 22.128906 18.003906 40.128906 40.132812 40.128906h260.082032c22.128906 0 40.132812-18.003906 40.132812-40.128906v-313.988282c11.960938-.742187 21.464844-10.703124 21.464844-22.847656v-62.15625c0-12.144531-9.503906-22.105468-21.464844-22.851562zm-325.140625 15.160156h309.933594v362.261719h-309.933594zm24.925781-49.980469h260.082032c13.746094 0 24.925781 11.183594 24.925781 24.925781v9.84375h-309.933594v-9.84375c0-13.742187 11.183594-24.925781 24.925781-24.925781zm-46.394531 89.179688v-31.507813c0-3.75 2.699219-6.886718 6.257813-7.558594v46.621094c-3.558594-.671875-6.257813-3.804687-6.257813-7.554687zm0 79.273437v-31.507812c0-3.75 2.699219-6.882813 6.257813-7.558594v46.621094c-3.558594-.671875-6.257813-3.804688-6.257813-7.554688zm306.476563 313.132813h-260.082032c-13.742187 0-24.921874-11.183594-24.921874-24.925781v-29.210938h309.929687v29.210938c0 13.742187-11.179687 24.925781-24.925781 24.925781zm46.390625-361.757813c0 3.75-2.699219 6.882813-6.257813 7.558594v-77.273438c3.558594.675782 6.257813 3.808594 6.257813 7.558594zm0 0"/><path d="m281.078125 174.125c-2.160156-8.65625-5.585937-16.914062-10.210937-24.621094-2.160157-3.601562-6.832032-4.769531-10.433594-2.605468-3.597656 2.160156-4.765625 6.832031-2.605469 10.433593 4.734375 7.886719 7.953125 16.46875 9.570313 25.507813.644531 3.625 3.800781 6.265625 7.484374 6.265625.234376 0 .46875-.003907.703126-.015625l.179687-.003906c22.773437 0 41.304687 18.523437 41.304687 41.292968 0 22.777344-18.53125 41.304688-41.304687 41.304688h-35.71875v-24.980469c0-4.199219-3.40625-7.605469-7.605469-7.605469h-81.605468c-4.199219 0-7.601563 3.40625-7.601563 7.605469v24.980469h-24.152344c-29.152343 0-52.871093-23.71875-52.871093-52.871094 0-29.09375 23.671874-52.808594 52.773437-52.863281 2.851563-.003907 5.457031-1.605469 6.757813-4.140625 12.996093-25.40625 38.785156-41.1875 67.292968-41.1875 17.109375 0 33.230469 5.574218 46.625 16.121094 3.300782 2.597656 8.082032 2.03125 10.679688-1.269532 2.597656-3.296875 2.03125-8.078125-1.269532-10.675781-16.101562-12.679687-35.480468-19.382813-56.035156-19.382813-32.734375 0-62.476562 17.316407-78.671875 45.492188-35.339843 2.433594-63.359375 31.984375-63.359375 67.90625 0 37.539062 30.539063 68.082031 68.078125 68.082031h24.152344v23.410157h-27.132813c-3.027343 0-5.765624 1.792968-6.972656 4.570312-1.207031 2.777344-.652344 6.003906 1.414063 8.21875l32.371093 34.707031c2.867188 3.070313 7.679688 3.238281 10.746094.371094 3.074219-2.863281 3.238282-7.675781.375-10.746094l-20.441406-21.914062h17.242188c4.199218 0 7.605468-3.402344 7.605468-7.601563v-63.601562h66.398438v63.601562c0 4.199219 3.402344 7.601563 7.601562 7.601563h17.242188l-58.039063 62.214843-16.886719-18.097656c-2.867187-3.070312-7.675781-3.238281-10.746093-.375-3.070313 2.867188-3.238281 7.679688-.375 10.75l22.449219 24.058594c1.4375 1.542969 3.449218 2.417969 5.558593 2.417969s4.121094-.875 5.558594-2.417969l75.535156-80.96875c2.0625-2.214844 2.617188-5.441406 1.410157-8.21875-1.203126-2.777344-3.945313-4.570312-6.972657-4.570312h-27.128906v-23.410157h35.71875c31.160156 0 56.511719-25.351562 56.511719-56.511719 0-29.367187-22.523438-53.574218-51.199219-56.257812zm0 0"/></svg>