<svg id="Capa_1" enable-background="new 0 0 512 512" height="512" viewBox="0 0 512 512" width="512" xmlns="http://www.w3.org/2000/svg" xmlns:xlink="http://www.w3.org/1999/xlink"><linearGradient id="SVGID_1_" gradientUnits="userSpaceOnUse" x1="514.782" x2="-122.414" y1="-43.218" y2="593.979"><stop offset="0" stop-color="#d2deff" stop-opacity="0"/><stop offset="1" stop-color="#b7c5ff"/></linearGradient><g><path d="m428.41 171.888c-8.355-8.355-18.026-14.923-28.716-19.765-28.021-12.69-50.052-35.408-62.434-63.565-22.918-52.113-74.976-88.512-135.547-88.558-79.311-.06-145.162 63.163-148.147 142.418-1.277 33.922 8.857 65.421 26.87 90.969 22.877 32.448 28.821 73.782 17.021 111.69-16.764 53.857-10.919 104.898 20.973 136.791 55.888 55.888 170.586 31.803 256.185-53.795 85.598-85.599 109.683-200.296 53.795-256.185z" fill="url(#SVGID_1_)"/><g><g><g><g><path d="m339.904 103.126v-22.45c0-16.568-13.431-30-30-30h-51.461v57.45h76.461c2.761 0 5-2.238 5-5z" fill="#00c" opacity=".1"/><path d="m439.766 191.783h-75.69v-29.209c0-11.04-8.95-20-20-20h-203.98c-.033 0-.066.005-.099.005h-30.212c-11.046 0-20 8.954-20 20v299.742c0 11.046 8.954 20 20 20h30.256c.018 0 .036.003.054.003h203.98c11.05 0 20-8.96 20-20v-29.207h75.69c5.523 0 10-4.477 10-10v-221.334c.001-5.523-4.476-10-9.999-10z" fill="#00c" opacity=".1"/><path d="m364.076 141.574v299.75c0 11.04-8.95 20-20 20h-203.98c-11.05 0-20-8.96-20-20v-299.75c0-11.04 8.95-20 20-20h203.98c11.05 0 20 8.96 20 20z" fill="#fff"/><g><path d="m339.904 82.126v-22.45c0-16.569-13.431-30-30-30h-51.461v57.45h76.461c2.761 0 5-2.238 5-5z" fill="#fff"/></g><g><path d="m288.843 402.117v-221.334c0-5.523 4.477-10 10-10h140.923c5.523 0 10 4.477 10 10v221.333c0 5.523-4.477 10-10 10h-140.923c-5.523.001-10-4.476-10-9.999z" fill="#6583fe"/><path d="m393.933 170.783h32.667v241.333h-32.667z" fill="#fff"/><g><path d="m364.304 212.201v-11.594c0-2.762 2.239-5 5-5s5 2.238 5 5v11.594c0 2.762-2.239 5-5 5s-5-2.238-5-5z" fill="#00c"/></g><g fill="#00c"><path d="m369.305 385.525c-1.279 0-2.56-.488-3.535-1.464l-10-10c-1.953-1.953-1.953-5.119 0-7.071 1.951-1.952 5.119-1.952 7.07 0l10 10c1.953 1.953 1.953 5.119 0 7.071-.976.976-2.256 1.464-3.535 1.464z"/><path d="m369.305 361.59c-1.279 0-2.56-.488-3.535-1.464l-10-10c-1.953-1.953-1.953-5.119 0-7.071 1.951-1.952 5.119-1.952 7.07 0l10 10c1.953 1.953 1.953 5.119 0 7.071-.976.976-2.256 1.464-3.535 1.464z"/><path d="m369.305 337.655c-1.279 0-2.56-.488-3.535-1.464l-10-10c-1.953-1.953-1.953-5.119 0-7.071 1.951-1.952 5.119-1.952 7.07 0l10 10c1.953 1.953 1.953 5.119 0 7.071-.976.976-2.256 1.464-3.535 1.464z"/><path d="m369.305 313.72c-1.279 0-2.56-.488-3.535-1.464l-10-10c-1.953-1.953-1.953-5.119 0-7.071 1.951-1.952 5.119-1.952 7.07 0l10 10c1.953 1.953 1.953 5.119 0 7.071-.976.975-2.256 1.464-3.535 1.464z"/><path d="m382.688 257.545v-56.938c0-2.761 2.239-5 5-5h6.49c2.761 0 5 2.239 5 5v56.938c0 2.761-2.239 5-5 5h-6.49c-2.762 0-5-2.239-5-5z"/></g></g><path d="m313.767 461.321h-203.981c-11.046 0-20-8.954-20-20v-299.742c0-11.046 8.954-20 20-20h203.982c11.046 0 20 8.954 20 20v299.742c-.001 11.046-8.955 20-20.001 20z" fill="#fff"/><path d="m311.006 29.676c-16.57 0-30 13.43-30 30v104.05h-138.86v-104.05c0-16.57 13.43-30 30-30z" fill="#fff"/><path d="m439.766 165.783h-70.688v-24.204c0-13.785-11.215-25-25-25h-58.071v-24.453h48.897c5.514 0 10-4.486 10-10v-22.45c0-18.804-14.908-34.186-33.525-34.963-.125-.009-.244-.037-.372-.037h-138.86c-19.299 0-35 15.701-35 35v56.903h-27.361c-13.785 0-25 11.215-25 25v299.742c0 13.785 11.215 25 25 25h234.293c13.785 0 25-11.215 25-25v-29.205h-.002c0-2.761-2.238-5-5-5h-25.309v-202.332c0-2.761-2.238-5-5-5s-5 2.239-5 5v236.538c0 8.271-6.729 15-15 15h-203.982c-8.271 0-15-6.729-15-15v-299.743c0-8.271 6.729-15 15-15h27.361v32.147h-8.433c-2.761 0-5 2.239-5 5s2.239 5 5 5h166.125c2.762 0 5-2.239 5-5s-2.238-5-5-5h-8.832v-32.147h27.761c8.271 0 15 6.729 15 15v29.204c0 2.761 2.238 5 4.999 5h105.999c2.757 0 5 2.243 5 5v221.333c0 2.757-2.243 5-5 5h-41.689c-2.762 0-5 2.239-5 5s2.238 5 5 5h41.689c8.272 0 15-6.729 15-15v-221.333c0-8.271-6.729-15-15-15zm-100.998 275.538v-24.205h20.31v24.205c0 8.271-6.728 15-15 15h-10.324c3.146-4.181 5.014-9.376 5.014-15zm-28.313-406.631c13.53.296 24.448 11.386 24.448 24.986v22.45h-48.897v-22.45c.001-13.6 10.919-24.69 24.449-24.986zm-163.309 124.036v-99.05c0-13.785 11.215-25 25-25h114.389c-6.493 6.357-10.528 15.216-10.528 25v99.05zm196.932-32.147c8.272 0 15 6.729 15 15v24.204h-20.31v-24.204c0-5.624-1.868-10.819-5.014-15z" fill="#00c"/><path d="m289.839 259h-67.853l-17.23-6.658-21.25 6.658h-11.41l-7.271-4.708-10.199 4.708h-20.912c-2.761 0-5-2.239-5-5v-63.869c0-2.761 2.239-5 5-5h94.782l8.4 3.29 9.08-3.29h11.4l15.776 10.476s20.554-8.655 20.699-8.46c.621.833.988 1.866.988 2.985v63.868c0 2.761-2.239 5-5 5z" fill="#6583fe"/><g><g><path d="m170.888 317.597h-22.463c-4.103 0-7.441-3.338-7.441-7.441v-22.462c0-4.103 3.338-7.441 7.441-7.441h22.463c4.103 0 7.441 3.338 7.441 7.441v22.462c0 4.103-3.338 7.441-7.441 7.441z" fill="#6583fe"/></g><g><path d="m223.885 317.597h-22.462c-4.103 0-7.441-3.338-7.441-7.441v-22.462c0-4.103 3.338-7.441 7.441-7.441h22.462c4.103 0 7.441 3.338 7.441 7.441v22.462c0 4.103-3.338 7.441-7.441 7.441z" fill="#6583fe"/></g><g><path d="m276.882 317.597h-22.462c-4.103 0-7.441-3.338-7.441-7.441v-22.462c0-4.103 3.338-7.441 7.441-7.441h22.463c4.103 0 7.441 3.338 7.441 7.441v22.462c-.001 4.103-3.339 7.441-7.442 7.441z" fill="#6583fe"/></g></g><g><g><path d="m170.888 373.077h-22.463c-4.103 0-7.441-3.338-7.441-7.441v-22.462c0-4.103 3.338-7.441 7.441-7.441h22.463c4.103 0 7.441 3.338 7.441 7.441v22.462c0 4.103-3.338 7.441-7.441 7.441z" fill="#6583fe"/></g><g><path d="m223.885 373.077h-22.462c-4.103 0-7.441-3.338-7.441-7.441v-22.462c0-4.103 3.338-7.441 7.441-7.441h22.462c4.103 0 7.441 3.338 7.441 7.441v22.462c0 4.103-3.338 7.441-7.441 7.441z" fill="#6583fe"/></g><g><path d="m276.882 373.077h-22.462c-4.103 0-7.441-3.338-7.441-7.441v-22.462c0-4.103 3.338-7.441 7.441-7.441h22.463c4.103 0 7.441 3.338 7.441 7.441v22.462c-.001 4.103-3.339 7.441-7.442 7.441z" fill="#6583fe"/></g></g><g><g><path d="m170.888 428.557h-22.463c-4.103 0-7.441-3.338-7.441-7.441v-22.463c0-4.103 3.338-7.441 7.441-7.441h22.463c4.103 0 7.441 3.338 7.441 7.441v22.463c0 4.103-3.338 7.441-7.441 7.441z" fill="#6583fe"/></g><g><path d="m223.885 428.557h-22.462c-4.103 0-7.441-3.338-7.441-7.441v-22.463c0-4.103 3.338-7.441 7.441-7.441h22.462c4.103 0 7.441 3.338 7.441 7.441v22.463c0 4.103-3.338 7.441-7.441 7.441z" fill="#6583fe"/></g><g><path d="m276.882 428.557h-22.462c-4.103 0-7.441-3.338-7.441-7.441v-22.463c0-4.103 3.338-7.441 7.441-7.441h22.463c4.103 0 7.441 3.338 7.441 7.441v22.463c-.001 4.103-3.339 7.441-7.442 7.441z" fill="#6583fe"/></g></g></g><g><g><path d="m181.083 91.145h-12.496c-2.761 0-4.999-2.238-4.999-4.999 0-2.76 2.238-4.999 4.999-4.999h12.496c2.761 0 4.999 2.238 4.999 4.999s-2.238 4.999-4.999 4.999z" fill="#00c"/></g><g><path d="m226.069 117.138h-57.482c-2.761 0-4.999-2.238-4.999-4.998s2.238-4.999 4.999-4.999h57.482c2.761 0 4.999 2.238 4.999 4.999-.001 2.76-2.238 4.998-4.999 4.998z" fill="#00c"/></g><path d="m256.069 137.132h-87.482c-2.761 0-4.999-2.238-4.999-4.999 0-2.76 2.238-4.998 4.999-4.998h87.482c2.761 0 4.999 2.238 4.999 4.998-.001 2.761-2.238 4.999-4.999 4.999z" fill="#00c"/></g></g><g fill="#00c"><ellipse cx="117.097" cy="396.647" rx="5.59" ry="5.59" transform="matrix(.386 -.923 .923 .386 -294.016 351.631)"/><ellipse cx="117.097" cy="413.557" rx="5.59" ry="5.59" transform="matrix(.386 -.923 .923 .386 -309.617 362.016)"/><path d="m122.687 430.467c0 3.087-2.503 5.59-5.59 5.59s-5.59-2.503-5.59-5.59 2.503-5.59 5.59-5.59 5.59 2.503 5.59 5.59"/></g></g><path d="m245.976 185.13-73.88 73.87h-17.47l73.87-73.87z" fill="#fff"/><path d="m293.846 187.15-71.86 71.85h-38.48l73.87-73.87h32.46c1.64 0 3.1.79 4.01 2.02z" fill="#fff"/><path d="m402.266 101.145c-1.279 0-2.56-.488-3.535-1.464-1.953-1.953-1.953-5.119 0-7.071l10-10c1.951-1.952 5.119-1.952 7.07 0 1.953 1.953 1.953 5.119 0 7.071l-10 10c-.976.976-2.256 1.464-3.535 1.464z" fill="#6583fe"/><path d="m62.234 243.416c-1.28 0-2.559-.488-3.536-1.464-1.953-1.953-1.953-5.119 0-7.071l10-10c1.953-1.952 5.118-1.952 7.071 0 1.953 1.953 1.953 5.119 0 7.071l-10 10c-.976.976-2.255 1.464-3.535 1.464z" fill="#6583fe"/><g><path d="m409.178 471.321c-1.279 0-2.56-.488-3.535-1.464l-6.465-6.464-6.465 6.464c-1.951 1.952-5.119 1.952-7.07 0-1.953-1.953-1.953-5.119 0-7.071l10-10c1.951-1.952 5.119-1.952 7.07 0l10 10c1.953 1.953 1.953 5.119 0 7.071-.976.976-2.256 1.464-3.535 1.464z" fill="#6583fe"/></g><g><path d="m99.786 81.126c-1.28 0-2.559-.488-3.536-1.464l-6.464-6.464-6.464 6.464c-1.953 1.952-5.118 1.952-7.071 0-1.953-1.953-1.953-5.119 0-7.071l10-10c1.953-1.952 5.118-1.952 7.071 0l10 10c1.953 1.953 1.953 5.119 0 7.071-.977.976-2.257 1.464-3.536 1.464z" fill="#6583fe"/></g><g><path d="m433.6 140.43c-1.279 0-2.56-.488-3.535-1.464l-6.465-6.464-6.465 6.464c-1.951 1.952-5.119 1.952-7.07 0-1.953-1.953-1.953-5.119 0-7.071l10-10c1.951-1.952 5.119-1.952 7.07 0l10 10c1.953 1.953 1.953 5.119 0 7.071-.976.976-2.256 1.464-3.535 1.464z" fill="#6583fe"/></g></g></g></svg>