<svg id="Layer_1" enable-background="new 0 0 512 512" height="512" viewBox="0 0 512 512" width="512" xmlns="http://www.w3.org/2000/svg"><path d="m256 46.576c-115.662 0-209.424 93.762-209.424 209.424s93.762 209.424 209.424 209.424 209.424-93.762 209.424-209.424-93.762-209.424-209.424-209.424zm126.126 329.122-19.517 8.222c-12.34 4.464-26.103-.586-32.626-11.972l-8.617-15.039c-5.353-9.342-19.018-8.751-23.544 1.018l-8.112 17.51c-10.199 22.014-33.474 34.902-57.544 31.864-93.16-11.758-104.296-120.868-104.296-120.868s-5.002-18.697-15.689-32.621c-19.707-25.675-23.495-63.185 10.431-94.619 43.685-40.477 129.431 11.712 99.452 71.758-19.48 39.018-56.229 38.342-29.335 52.035 13.93 7.092 31.345 15.424 43.842 8.823 8.674-4.582 27.069-27.096 20.367-49.716-3.833-12.935-8.814-38.477 16.401-36.537 36.418 2.802 13.577 32.488 13.577 32.488s4.849 35.882-23.76 69.825c0 0 33.492-14.981 49.088-12.926 13.57 1.787 25.612 23.538 32.475 38.824 3.518 7.837 12.127 12.098 20.483 10.104 11.589-2.765 26.158-3.245 27.664 11.147 1.865 8.58-2.649 17.271-10.74 20.68z" fill="#8bc4ff"/><g fill="#2e58ff"><path d="m436.979 75.021c-100.024-100.022-261.922-100.034-361.958 0-100.022 100.024-100.034 261.922 0 361.958 100.024 100.022 261.922 100.034 361.958 0 100.022-100.024 100.034-261.922 0-361.958zm-11.311 350.647c-93.769 93.769-245.553 93.783-339.336 0-93.769-93.769-93.783-245.553 0-339.336 93.769-93.769 245.553-93.783 339.336 0 93.769 93.769 93.783 245.553 0 339.336z"/><circle cx="97.205" cy="119.466" r="7.998"/><path d="m409.741 102.259c-82.344-82.342-211.927-83.812-296.363-10.37-3.333 2.899-3.685 7.951-.786 11.284 2.901 3.335 7.953 3.685 11.284.786 83.993-73.056 213.183-64.743 286.584 22.91h-64.548c-19.597 0-35.54 15.943-35.54 35.54 0 19.641 15.891 35.537 35.535 35.537 4.351 0 26.058-.005 39.421-.012 4.276-.002 8.436 1.627 11.618 4.808 10.254 10.251 3.071 28.033-11.6 28.033h-32.168c-17.426 0-33.501 9.466-41.953 24.703l-18.682 33.679c-3.035.739-6.078 1.596-9.022 2.511 11.764-22.982 12.032-43.604 11.603-51.421 13.382-20.704 7.632-40.45-21.172-42.665-12.562-.97-19.277 3.865-22.691 8.089-6.534 8.083-7.203 21.102-1.991 38.695 5.328 17.98-10.124 37.038-16.435 40.371-9.341 4.932-26.328-3.711-36.476-8.878-1.319-.672-2.347-1.245-3.147-1.723 10.217-8.341 24.539-17.011 35.968-39.537 34.237-67.482-61.64-127.934-112.005-81.273-39.771 36.853-30.965 79.788-11.338 105.356 8.611 11.22 13.293 26.331 14.159 29.301.568 4.753 4.173 30.637 17.939 58.063 20.131 40.107 52.369 64.033 93.229 69.191 27.588 3.481 54.066-11.104 65.804-36.437 0-.1-.661 1.427 8.111-17.51 1.819-3.926 7.248-4.07 9.348-.405l8.616 15.041c8.475 14.79 26.259 21.318 42.287 15.515.292-.105 5.541-2.323 19.901-8.372 20.043-8.443 20.088-35.206 7.065-44.428-6.629-4.694-16.372-5.552-28.95-2.549-4.619 1.1-9.38-1.255-11.331-5.6-7.66-17.064-21.218-41.994-39.923-43.6l13.121-23.655c5.634-10.157 16.349-16.466 27.964-16.466h32.168c17.871 0 32.41-14.539 32.41-32.41 0-17.913-14.492-32.423-32.419-32.423-4.026 0-10.531.007-39.428.012-5.217.001-10.125-2.029-13.817-5.722-12.281-12.281-3.473-33.362 13.82-33.362h76.655c90.102 132.234-4.336 314.56-166.566 314.56-157.629 0-252.539-172.942-172.557-305.39 2.283-3.781 1.069-8.698-2.712-10.982-3.783-2.281-8.698-1.068-10.982 2.712-49.537 82.037-40.986 192.477 32.51 265.975 84.97 84.968 222.501 84.979 307.482 0 84.968-84.97 84.979-222.501 0-307.482zm-72.319 234.784c5.095 11.346 17.561 17.49 29.637 14.607 11.058-2.641 15.035-.633 15.993.045 1.755 1.242 1.697 3.64 1.999 5.021 1.047 4.814-1.49 9.697-6.03 11.611l-19.31 8.135c-8.657 3.033-18.217-.512-22.788-8.489l-8.616-15.04c-8.534-14.898-30.467-14.071-37.742 1.632-6.273 13.542-8.111 17.645-8.111 17.509-8.773 18.937-28.589 29.898-49.286 27.291-35.679-4.503-62.837-24.714-80.724-60.074-14.03-27.736-16.506-53.644-16.847-54.924-.222-.826-5.547-20.409-17.071-35.425-16.276-21.204-22.321-54.376 9.522-83.883 35.977-33.335 108.719 7.316 88.655 58.269-5.929.221-10.316-.554-13.109-1.353-4.251-1.213-8.675 1.246-9.889 5.493s1.245 8.674 5.493 9.888c2.76.789 5.933 1.37 8.523 1.644-15.199 20.217-33.631 23.501-32.445 36.55.631 6.933 7.017 11.096 13.825 14.562 13.748 6.999 34.526 17.578 51.206 8.768 6.5-3.433 14.24-12.027 19.261-21.384 4.763-8.874 9.503-22.613 5.039-37.676-5.073-17.121-1.976-22.771-.906-24.095 1.46-1.805 4.491-2.543 9.024-2.195 7 .538 11.825 2.294 12.904 4.698 1.526 3.394-1.963 10.868-5.054 14.938-1.301 1.691-1.873 3.833-1.587 5.948 3.356 24.81-14.225 64.034-36 75.224-14.516 7.464-40.552-.381-49.36-4.03-4.07-1.693-8.754.231-10.453 4.307-1.7 4.077.227 8.761 4.304 10.461 11.196 4.653 27.238 8.392 39.975 8.392 15.532 0 27.862-4.844 40.686-19.051 10.897-6.786 29.951-13.27 43.058-11.544 5.592.735 15.417 10.099 26.224 34.17z"/></g></svg>