<svg width="694" height="682" viewBox="0 0 694 682" fill="none" xmlns="http://www.w3.org/2000/svg">
<path d="M348.158 657.012C168.356 657.012 22.5983 582.392 22.5983 490.344C22.5983 398.297 168.356 323.677 348.158 323.677C527.959 323.677 673.717 398.297 673.717 490.344C673.717 582.392 527.959 657.012 348.158 657.012Z" fill="#F3F7FF"/>
<path d="M162.558 597.937C113.57 597.937 73.8575 573.405 73.8575 543.145C73.8575 512.884 113.57 488.353 162.558 488.353C211.547 488.353 251.259 512.884 251.259 543.145C251.259 573.405 211.547 597.937 162.558 597.937Z" fill="#E0E0E0"/>
<path d="M373.119 444.828L429.957 412.023C430.9 411.54 431.945 411.288 433.005 411.288C434.066 411.288 435.111 411.54 436.054 412.023L624.436 520.802C624.805 520.926 625.126 521.162 625.354 521.478C625.581 521.793 625.704 522.173 625.704 522.562C625.704 522.951 625.581 523.33 625.354 523.646C625.126 523.962 624.805 524.198 624.436 524.322L567.612 557.139C566.665 557.612 565.621 557.859 564.563 557.859C563.505 557.859 562.461 557.612 561.515 557.139L544.724 547.441L389.924 458.304L373.105 448.415C372.725 448.292 372.394 448.052 372.159 447.729C371.925 447.405 371.799 447.016 371.801 446.616C371.802 446.217 371.931 445.828 372.168 445.507C372.405 445.185 372.738 444.947 373.119 444.828Z" fill="#E0E0E0"/>
<path d="M117.614 522.767L126.399 518.102C126.399 518.102 125.539 475.218 116.646 442.004C107.535 408 81.0184 370.435 55.9617 384.512C30.905 398.588 75.4396 427.518 88.834 455.44C102.229 483.361 117.614 522.767 117.614 522.767Z" fill="#1D4BB7"/>
<path opacity="0.15" d="M117.614 522.767L126.399 518.102C126.399 518.102 125.539 475.218 116.646 442.004C107.535 408 81.0184 370.435 55.9617 384.512C30.905 398.588 75.4396 427.518 88.834 455.44C102.229 483.361 117.614 522.767 117.614 522.767Z" fill="black"/>
<path d="M118.774 512.591C118.89 512.588 119.005 512.561 119.111 512.513C119.217 512.466 119.313 512.397 119.393 512.312C119.473 512.227 119.535 512.128 119.576 512.019C119.618 511.91 119.637 511.794 119.633 511.677C117.751 445.128 88.6568 404.494 64.3094 389.927C64.1068 389.806 63.8644 389.77 63.6354 389.827C63.4065 389.885 63.2098 390.031 63.0886 390.234C62.9674 390.436 62.9317 390.679 62.9892 390.908C63.0468 391.137 63.1929 391.333 63.3955 391.454C87.361 405.79 115.991 445.892 117.86 511.718C117.862 511.836 117.887 511.952 117.934 512.06C117.981 512.168 118.049 512.265 118.134 512.346C118.219 512.427 118.32 512.491 118.429 512.533C118.539 512.575 118.656 512.595 118.774 512.591Z" fill="white"/>
<path d="M113.645 524.813L121.488 520.789C121.488 520.789 120.52 499.729 104.384 472.285C90.0617 447.91 61.0358 428.814 48.8416 435.621C39.3754 440.886 37.193 452.425 46.2636 460.104C55.3342 467.784 97.209 483.893 113.645 524.813Z" fill="#1D4BB7"/>
<path d="M116.796 518.088C115.432 518.361 114.955 514.992 114.682 514.133C114.164 512.523 113.618 510.941 113.018 509.359C111.843 506.281 110.509 503.267 109.021 500.329C106.157 494.677 102.802 489.286 98.9959 484.22C95.4387 479.477 91.5604 474.983 87.3882 470.771C83.6236 466.983 79.6625 463.395 75.5215 460.023C72.0569 457.186 68.4559 454.498 64.7595 451.975C62.0315 450.12 59.3035 448.347 56.4527 446.683C54.966 445.81 53.4792 444.95 51.9379 444.159L51.5014 443.941C51.2572 443.822 51.0705 443.61 50.9822 443.353C50.894 443.096 50.9114 442.814 51.0308 442.57C51.1502 442.326 51.3617 442.139 51.6188 442.051C51.8759 441.963 52.1575 441.98 52.4016 442.1C53.3565 442.563 54.2703 443.082 55.1297 443.6C57.5303 444.964 59.8764 446.328 62.1815 447.856C65.6006 450.065 68.9379 452.402 72.1933 454.867C76.2307 457.922 80.1091 461.164 83.8282 464.592C88.0678 468.475 92.0585 472.62 95.7769 477.004C99.8082 481.731 103.457 486.771 106.689 492.077C110.127 497.692 113.005 503.631 115.282 509.809C115.709 511 116.119 512.187 116.51 513.369C117.083 514.548 117.43 515.825 117.533 517.133C117.516 517.341 117.442 517.54 117.319 517.709C117.196 517.877 117.03 518.008 116.837 518.088H116.796Z" fill="white"/>
<path d="M561.91 485.366C561.91 485.366 561.692 458.618 572.208 436.48C582.725 414.342 599.175 399.366 615.856 395.942C632.538 392.518 647.924 406.295 631.283 419.13C614.642 431.965 584.075 446.819 574.309 488.394L561.91 485.366Z" fill="#1D4BB7"/>
<path opacity="0.15" d="M561.91 485.366C561.91 485.366 561.692 458.618 572.208 436.48C582.725 414.342 599.175 399.366 615.856 395.942C632.538 392.518 647.924 406.295 631.283 419.13C614.642 431.965 584.075 446.819 574.309 488.394L561.91 485.366Z" fill="black"/>
<path d="M568.867 480.742C569.041 480.742 569.208 480.676 569.335 480.557C569.462 480.438 569.538 480.274 569.549 480.101C572.113 437.285 607.386 409.446 624.818 404.699C624.991 404.651 625.138 404.537 625.228 404.381C625.317 404.225 625.341 404.04 625.295 403.867C625.247 403.69 625.132 403.539 624.973 403.448C624.815 403.356 624.627 403.33 624.45 403.376C606.718 408.218 570.79 436.521 568.185 480.019C568.18 480.198 568.244 480.372 568.363 480.506C568.482 480.64 568.647 480.725 568.826 480.742H568.867Z" fill="white"/>
<path d="M559.755 522.085C556.376 517.821 554.109 512.784 553.156 507.428C552.204 502.071 552.597 496.562 554.299 491.395C555.289 488.274 556.873 485.375 558.964 482.856C560.642 480.878 563.056 479.855 565.02 478.205C569.249 474.699 574.159 470.976 575.687 465.41C576.914 460.977 576.655 456.776 579.11 452.616C580.557 450.011 582.861 447.987 585.63 446.887C589.245 445.523 593.228 446.424 597.047 446.887C602.503 447.501 606.595 445.619 611.314 443.109C616.511 440.381 622.581 438.226 628.214 439.904C630.046 440.446 631.744 441.368 633.197 442.609C634.65 443.85 635.826 445.382 636.649 447.107C637.472 448.831 637.924 450.709 637.975 452.62C638.025 454.53 637.674 456.429 636.944 458.195C635.689 461.25 633.37 463.733 631.665 466.57C629.96 469.407 629.06 472.653 630.301 475.75C631.256 478.041 633.029 479.842 633.738 482.174C635.757 488.312 634.625 493.768 628.528 496.932C622.158 500.192 612.16 497.737 608.968 505.744C607.768 508.786 607.727 512.155 607.072 515.36C605.728 521.811 601.978 527.508 596.583 531.292C589.258 536.379 579.315 535.138 571.717 531.592C567.05 529.388 562.955 526.134 559.755 522.085Z" fill="#1D4BB7"/>
<path d="M617.18 483.347C617.03 483.372 616.877 483.348 616.743 483.279C611.371 481.202 605.605 480.34 599.86 480.755C594.116 481.17 588.534 482.852 583.516 485.679C583.344 485.771 583.143 485.791 582.956 485.735C582.769 485.679 582.613 485.551 582.52 485.379C582.472 485.296 582.442 485.203 582.43 485.107C582.419 485.011 582.427 484.914 582.453 484.821C582.48 484.728 582.525 484.642 582.586 484.567C582.646 484.492 582.722 484.429 582.807 484.384C588.02 481.456 593.818 479.72 599.782 479.3C605.747 478.88 611.73 479.787 617.302 481.956C617.433 482.028 617.539 482.138 617.606 482.271C617.673 482.405 617.698 482.556 617.677 482.704C617.657 482.852 617.591 482.99 617.49 483.1C617.389 483.21 617.257 483.287 617.111 483.32L617.18 483.347Z" fill="white"/>
<path d="M569.549 522.317C569.727 522.32 569.9 522.254 570.03 522.131C570.16 522.009 570.237 521.84 570.244 521.662C571.513 490.835 602.462 458.236 623.208 449.37C623.292 449.336 623.368 449.285 623.432 449.221C623.496 449.157 623.547 449.081 623.581 448.997C623.615 448.913 623.633 448.823 623.632 448.733C623.631 448.642 623.612 448.553 623.577 448.47C623.502 448.302 623.364 448.17 623.193 448.104C623.022 448.037 622.831 448.041 622.663 448.115C601.589 457.145 570.162 490.29 568.867 521.635C568.863 521.726 568.877 521.817 568.909 521.903C568.941 521.989 568.989 522.067 569.051 522.135C569.113 522.202 569.188 522.256 569.271 522.294C569.354 522.332 569.444 522.354 569.535 522.357L569.549 522.317Z" fill="white"/>
<path d="M398.721 81.8402L553.099 170.937C554.628 171.935 555.898 173.281 556.806 174.864C557.714 176.448 558.234 178.225 558.323 180.048V543.595C558.323 546.923 555.977 548.274 553.099 546.596L398.721 457.472C397.203 456.476 395.939 455.138 395.032 453.565C394.124 451.992 393.599 450.228 393.497 448.415V84.8137C393.497 81.4855 395.843 80.1215 398.721 81.8402ZM401.013 421.476C401.013 424.327 403.018 426.141 405.487 427.56L546.852 509.209C549.307 510.573 551.326 509.481 551.326 506.617V204.286C551.325 202.723 550.912 201.188 550.129 199.835C549.346 198.482 548.221 197.359 546.865 196.58L405.5 114.917C405.047 114.654 404.532 114.514 404.007 114.513C403.483 114.512 402.967 114.649 402.512 114.91C402.057 115.171 401.679 115.548 401.416 116.002C401.153 116.455 401.014 116.971 401.013 117.495V421.476Z" fill="#455A64"/>
<path d="M401.013 421.476C401.013 424.327 403.018 426.141 405.487 427.56L546.852 509.209C549.307 510.573 551.326 509.481 551.326 506.617V204.286C551.325 202.723 550.912 201.188 550.129 199.835C549.346 198.482 548.221 197.359 546.865 196.58L405.5 114.917C405.047 114.654 404.532 114.514 404.007 114.513C403.483 114.512 402.967 114.649 402.512 114.91C402.057 115.171 401.679 115.548 401.416 116.002C401.153 116.455 401.014 116.971 401.013 117.495V421.476Z" fill="#263238"/>
<path d="M546.852 509.209L405.487 427.587C404.494 427.05 403.577 426.385 402.759 425.609L551.326 341.941V506.617C551.326 509.481 549.307 510.627 546.852 509.209Z" fill="#37474F"/>
<path d="M412.457 416.17V118.941L546.865 196.58C548.221 197.359 549.346 198.482 550.129 199.835C550.912 201.188 551.325 202.723 551.326 204.286V499.852L416.931 422.254C414.462 420.835 412.457 419.021 412.457 416.17Z" fill="#1D4BB7"/>
<path d="M553.754 546.964C555.312 547.622 556.995 547.933 558.686 547.876C560.377 547.82 562.036 547.397 563.547 546.637L569.521 543.186C571.046 542.199 572.315 540.865 573.226 539.293C574.136 537.721 574.661 535.956 574.759 534.143V170.5C574.725 169.152 574.419 167.826 573.859 166.599C573.668 166.176 573.463 165.767 573.231 165.344L556.863 174.892C557.208 175.507 557.508 176.145 557.764 176.802C558.161 177.835 558.378 178.928 558.405 180.035V543.595C558.323 546.664 556.332 548.055 553.754 546.964Z" fill="#263238"/>
<path d="M471.3 473.717C467.958 473.717 467.603 477.468 467.603 479.078C467.803 482.303 468.748 485.437 470.365 488.235C471.981 491.033 474.225 493.417 476.919 495.2C478 495.887 479.241 496.282 480.52 496.346C483.862 496.346 484.217 492.595 484.217 490.986C484.015 487.761 483.071 484.626 481.457 481.827C479.843 479.028 477.604 476.64 474.914 474.849C473.824 474.174 472.581 473.784 471.3 473.717Z" fill="#1D4BB7"/>
<path d="M476.019 132.185C474.655 131.367 473.469 132.022 473.469 133.659C473.518 134.543 473.775 135.404 474.218 136.172C474.661 136.939 475.278 137.592 476.019 138.078C477.383 138.883 478.584 138.228 478.584 136.605C478.537 135.718 478.28 134.854 477.834 134.086C477.388 133.318 476.766 132.666 476.019 132.185Z" fill="#263238"/>
<path d="M492.496 153.723C491.241 153 490.232 153.587 490.232 155.087C490.274 155.872 490.501 156.636 490.894 157.316C491.288 157.997 491.837 158.574 492.496 159.002C493.751 159.725 494.761 159.138 494.761 157.638C494.717 156.853 494.489 156.09 494.096 155.41C493.702 154.73 493.154 154.152 492.496 153.723Z" fill="#263238"/>
<path d="M484.926 149.249L459.569 134.613C458.205 133.809 457.06 134.381 457.06 135.882C457.126 136.724 457.387 137.54 457.823 138.264C458.259 138.989 458.856 139.602 459.569 140.056L484.926 154.691C486.29 155.496 487.436 154.923 487.436 153.423C487.369 152.58 487.108 151.765 486.673 151.04C486.237 150.316 485.639 149.703 484.926 149.249Z" fill="#263238"/>
<path d="M393.552 83.9816C393.934 81.2536 396.102 80.2852 398.708 81.7992L553.112 170.937C554.657 171.896 555.927 173.24 556.795 174.838L573.163 165.29C572.281 163.705 571.009 162.371 569.467 161.416L415.158 72.2922C413.538 71.4713 411.749 71.0435 409.933 71.0435C408.118 71.0435 406.328 71.4713 404.709 72.2922L398.708 75.7294C397.309 76.6572 396.125 77.8737 395.236 79.2971C394.347 80.7205 393.772 82.3178 393.552 83.9816Z" fill="#37474F"/>
<path d="M434.049 95.0164C434.85 95.4443 435.741 95.6761 436.649 95.6927C437.558 95.7093 438.457 95.5103 439.273 95.1119C439.546 94.9953 439.783 94.807 439.959 94.5669C440.134 94.3268 440.241 94.0438 440.269 93.7479C440.269 93.366 440.269 91.9474 440.269 91.5518C440.225 91.2115 440.094 90.8882 439.888 90.6134C439.683 90.3385 439.41 90.1215 439.096 89.9832L422.55 80.4352C421.746 80.0103 420.853 79.7803 419.943 79.7638C419.033 79.7472 418.132 79.9445 417.313 80.3398C417.044 80.4618 416.812 80.6519 416.64 80.8911C416.468 81.1304 416.361 81.4105 416.331 81.7038C416.331 82.0993 416.331 83.5724 416.331 83.9544C416.373 84.2967 416.504 84.6223 416.709 84.8995C416.915 85.1766 417.188 85.3961 417.504 85.5366L434.049 95.0164Z" fill="#1D4BB7"/>
<path opacity="0.25" d="M434.049 95.0164C434.85 95.4443 435.741 95.6761 436.649 95.6927C437.558 95.7093 438.457 95.5103 439.273 95.1119C439.546 94.9953 439.783 94.807 439.959 94.5669C440.134 94.3268 440.241 94.0438 440.269 93.7479C440.269 93.366 440.269 91.9474 440.269 91.5518C440.225 91.2115 440.094 90.8882 439.888 90.6134C439.683 90.3385 439.41 90.1215 439.096 89.9832L422.55 80.4352C421.746 80.0103 420.853 79.7803 419.943 79.7638C419.033 79.7472 418.132 79.9445 417.313 80.3398C417.044 80.4618 416.812 80.6519 416.64 80.8911C416.468 81.1304 416.361 81.4105 416.331 81.7038C416.331 82.0993 416.331 83.5724 416.331 83.9544C416.373 84.2967 416.504 84.6223 416.709 84.8995C416.915 85.1766 417.188 85.3961 417.504 85.5366L434.049 95.0164Z" fill="black"/>
<path d="M434.049 92.8476L417.504 83.2996C416.003 82.4267 415.935 81.0763 417.326 80.2716C418.146 79.8763 419.047 79.679 419.957 79.6955C420.866 79.7121 421.759 79.9421 422.564 80.367L439.109 89.915C440.596 90.7744 440.678 92.1247 439.273 92.9295C438.457 93.3267 437.559 93.5263 436.651 93.5121C435.744 93.4979 434.852 93.2703 434.049 92.8476Z" fill="#1D4BB7"/>
<path opacity="0.3" d="M434.049 92.8476L417.504 83.2996C416.003 82.4267 415.935 81.0763 417.326 80.2716C418.146 79.8763 419.047 79.679 419.957 79.6955C420.866 79.7121 421.759 79.9421 422.564 80.367L439.109 89.915C440.596 90.7744 440.678 92.1247 439.273 92.9295C438.457 93.3267 437.559 93.5263 436.651 93.5121C435.744 93.4979 434.852 93.2703 434.049 92.8476Z" fill="black"/>
<path d="M564.42 225.292C564.452 224.384 564.699 223.497 565.14 222.703C565.581 221.909 566.204 221.23 566.957 220.723C567.204 220.54 567.496 220.43 567.802 220.403C568.108 220.377 568.415 220.435 568.689 220.573C569.003 220.764 570.258 221.459 570.585 221.664C570.859 221.871 571.075 222.146 571.211 222.462C571.347 222.777 571.4 223.123 571.363 223.464V264.002C571.33 264.909 571.084 265.794 570.646 266.588C570.208 267.382 569.589 268.061 568.839 268.572C568.593 268.738 568.308 268.837 568.012 268.861C567.715 268.885 567.418 268.832 567.148 268.708C566.793 268.531 565.525 267.794 565.184 267.59C564.91 267.382 564.694 267.107 564.558 266.792C564.422 266.476 564.37 266.131 564.406 265.789L564.42 225.292Z" fill="#1D4BB7"/>
<path opacity="0.3" d="M564.42 225.292C564.452 224.384 564.699 223.497 565.14 222.703C565.581 221.909 566.204 221.23 566.957 220.723C567.204 220.54 567.496 220.43 567.802 220.403C568.108 220.377 568.415 220.435 568.689 220.573C569.003 220.764 570.258 221.459 570.585 221.664C570.859 221.871 571.075 222.146 571.211 222.462C571.347 222.777 571.4 223.123 571.363 223.464V264.002C571.33 264.909 571.084 265.794 570.646 266.588C570.208 267.382 569.589 268.061 568.839 268.572C568.593 268.738 568.308 268.837 568.012 268.861C567.715 268.885 567.418 268.832 567.148 268.708C566.793 268.531 565.525 267.794 565.184 267.59C564.91 267.382 564.694 267.107 564.558 266.792C564.422 266.476 564.37 266.131 564.406 265.789L564.42 225.292Z" fill="black"/>
<path d="M566.302 226.424V266.962C566.302 268.681 567.434 269.417 568.839 268.613C569.589 268.102 570.208 267.423 570.646 266.629C571.084 265.835 571.33 264.949 571.363 264.043V223.464C571.363 221.732 570.231 220.995 568.839 221.8C568.08 222.315 567.454 223.002 567.013 223.806C566.572 224.61 566.328 225.507 566.302 226.424Z" fill="#1D4BB7"/>
<path opacity="0.4" d="M566.302 226.424V266.962C566.302 268.681 567.434 269.417 568.839 268.613C569.589 268.102 570.208 267.423 570.646 266.629C571.084 265.835 571.33 264.949 571.363 264.043V223.464C571.363 221.732 570.231 220.995 568.839 221.8C568.08 222.315 567.454 223.002 567.013 223.806C566.572 224.61 566.328 225.507 566.302 226.424Z" fill="black"/>
<path d="M564.42 279.62C564.452 278.712 564.699 277.825 565.14 277.031C565.581 276.237 566.204 275.558 566.957 275.051C567.204 274.868 567.496 274.758 567.802 274.732C568.108 274.705 568.415 274.764 568.689 274.901C569.003 275.092 570.258 275.787 570.585 275.992C570.859 276.199 571.075 276.474 571.211 276.79C571.347 277.105 571.4 277.451 571.363 277.792V296.888C571.328 297.792 571.081 298.675 570.643 299.466C570.205 300.258 569.587 300.935 568.839 301.444C568.601 301.621 568.32 301.73 568.025 301.761C567.73 301.792 567.432 301.744 567.162 301.621C566.807 301.444 565.538 300.708 565.197 300.503C564.925 300.298 564.71 300.025 564.573 299.712C564.437 299.399 564.384 299.056 564.42 298.716V279.62Z" fill="#1D4BB7"/>
<path opacity="0.3" d="M564.42 279.62C564.452 278.712 564.699 277.825 565.14 277.031C565.581 276.237 566.204 275.558 566.957 275.051C567.204 274.868 567.496 274.758 567.802 274.732C568.108 274.705 568.415 274.764 568.689 274.901C569.003 275.092 570.258 275.787 570.585 275.992C570.859 276.199 571.075 276.474 571.211 276.79C571.347 277.105 571.4 277.451 571.363 277.792V296.888C571.328 297.792 571.081 298.675 570.643 299.466C570.205 300.258 569.587 300.935 568.839 301.444C568.601 301.621 568.32 301.73 568.025 301.761C567.73 301.792 567.432 301.744 567.162 301.621C566.807 301.444 565.538 300.708 565.197 300.503C564.925 300.298 564.71 300.025 564.573 299.712C564.437 299.399 564.384 299.056 564.42 298.716V279.62Z" fill="black"/>
<path d="M566.302 280.643V299.739C566.302 301.458 567.434 302.208 568.839 301.39C569.589 300.879 570.208 300.2 570.646 299.406C571.084 298.612 571.33 297.726 571.363 296.82V277.724C571.363 276.006 570.231 275.255 568.839 276.06C568.087 276.572 567.466 277.253 567.025 278.05C566.584 278.846 566.337 279.734 566.302 280.643Z" fill="#1D4BB7"/>
<path opacity="0.4" d="M566.302 280.643V299.739C566.302 301.458 567.434 302.208 568.839 301.39C569.589 300.879 570.208 300.2 570.646 299.406C571.084 298.612 571.33 297.726 571.363 296.82V277.724C571.363 276.006 570.231 275.255 568.839 276.06C568.087 276.572 567.466 277.253 567.025 278.05C566.584 278.846 566.337 279.734 566.302 280.643Z" fill="black"/>
<path d="M519.217 245.779C519.081 246.442 518.899 247.093 518.671 247.73C517.785 250.13 516.189 252.395 516.325 254.959C516.475 257.851 518.753 260.088 520.499 262.393C522.768 265.441 524.28 268.984 524.911 272.731C525.542 276.478 525.273 280.321 524.127 283.944C522.45 288.357 520.124 292.494 517.226 296.22L510.637 305.563C508.645 308.18 506.103 310.326 503.19 311.851C497.529 315.051 491.213 316.917 484.721 317.307C474.052 318.028 463.439 315.245 454.495 309.383C445.015 303.108 449.189 287.013 439.491 281.134C427.761 274.041 422.168 249.408 436.545 239.123C436.545 239.123 434.226 224.037 438.482 220.191C442.723 216.642 447.971 214.514 453.486 214.107C461.097 213.316 468.722 214.803 476.319 214.776C484.14 214.75 491.955 215.238 499.712 216.235C502.44 216.603 506.286 217.599 507.759 220.259C508.175 221.302 508.289 222.441 508.087 223.546C508.108 225.299 508.734 226.99 509.86 228.334C511.551 230.38 513.952 231.757 515.752 233.681C517.238 235.284 518.326 237.215 518.928 239.317C519.53 241.418 519.629 243.632 519.217 245.779Z" fill="#263238"/>
<path d="M443.515 267.549C431.239 267.89 429.643 270.509 418.649 281.393C409.511 290.437 379.23 318.385 379.23 318.385L342.947 328.042L351.513 350.18C351.513 350.18 359.697 349.839 376.065 349.825C386.118 349.825 389.61 347.575 399.731 340.823C404.887 337.372 433.981 318.33 433.981 318.33L443.515 267.549Z" fill="#E6E6E6"/>
<path d="M302.805 283.276L369.3 306.709L387.632 385.821L386.145 387.403L322.924 363.82L301.332 284.858L302.805 283.276Z" fill="#1D4BB7"/>
<path opacity="0.35" d="M367.827 308.291L386.145 387.403L387.632 385.821L369.3 306.709L367.827 308.291Z" fill="black"/>
<path opacity="0.25" d="M301.332 284.858L367.827 308.291L386.145 387.403L322.924 363.82L301.332 284.858Z" fill="black"/>
<g opacity="0.2">
<path opacity="0.2" d="M332.813 347.725C332.199 349.28 327.098 352.703 319.718 352.089L318.477 347.534L332.813 347.725Z" fill="black"/>
</g>
<g opacity="0.1">
<path opacity="0.1" d="M321.355 301.062L320.81 298.402C320.51 296.943 324.411 297.707 329.526 300.121L341.529 303.749C346.644 306.164 351.472 307.964 351.786 309.424L352.332 312.07L321.355 301.062Z" fill="black"/>
</g>
<path d="M317.4 289.059C317.209 288.145 318.764 288.336 320.851 288.895L324.683 290.191C324.683 290.191 323.115 286.345 332.185 288.827C342.156 291.555 342.374 296.506 342.374 296.506C343.934 297.183 345.533 297.766 347.162 298.252C350.477 299.33 350.831 299.971 351.104 300.899L351.595 302.576L317.7 290.655C317.7 290.655 317.536 289.973 317.4 289.059Z" fill="#37474F"/>
<path d="M320.973 294.147C324.111 295.511 325.406 296.261 325.884 298.525C326.416 301.103 326.525 302.181 326.525 302.181L344.175 309.137C344.175 309.137 343.22 305.332 342.988 304.063C342.756 302.795 345.089 302.795 348.144 304.199L347.421 301.035L319.964 290.846L320.973 294.147Z" fill="#37474F"/>
<path d="M320.455 301.103C320.455 301.103 320.196 299.916 319.896 298.443C319.596 296.97 323.497 297.748 328.612 300.162L340.615 303.79C345.73 306.205 350.572 308.005 350.872 309.464L351.418 312.192L320.455 301.103Z" fill="#37474F"/>
<path d="M308.725 311.92C308.725 311.92 311.084 320.595 311.712 322.832C312.339 325.069 323.224 330.047 328.666 330.729C339.087 332.025 340.274 334.276 337.778 341.641C335.459 348.461 328.68 351.053 319.268 349.948C314.849 349.43 308.752 345.515 306.351 338.681C303.296 329.952 304.987 320.636 303.719 315.493C302.45 310.351 306.078 308.878 308.725 311.92Z" fill="#FFA8A7"/>
<path d="M411.761 431.215L418.813 435.307L421.773 437.012L460.565 459.395L465.857 462.396L474.792 467.552L472.064 439.713L466.853 385.808V385.248L466.608 382.834L459.788 312.356L456.8 281.516L455.75 270.454L455.396 266.88H455.205C452.046 266.002 448.707 266.002 445.547 266.88C444.843 267.094 444.159 267.368 443.501 267.699C439.409 269.731 436.681 273.687 434.417 277.847C433.861 278.86 433.36 279.903 432.917 280.971C431.235 285.013 429.938 289.206 429.043 293.492C427.256 301.403 424.951 309.492 424.037 322.245C423.893 325.528 424.067 328.817 424.556 332.066C425.17 340.664 425.275 349.29 424.869 357.9C423.723 377.405 418.813 386.244 411.761 431.215Z" fill="#E0E0E0"/>
<path d="M421.773 436.985L460.565 459.368L465.857 462.396L474.792 467.552L480.943 471.098L518.29 492.65C517.894 477.646 517.717 461.373 518.071 446.001C518.18 440.859 518.221 435.607 518.003 430.233C517.294 411.574 513.747 391.564 501.035 370.503L500.448 369.44C498.948 378.346 485.308 384.13 473.032 385.494L471.668 385.617C470.127 385.767 468.531 385.835 466.88 385.835H465.844C455.464 385.739 443.174 383.298 429.016 378.51C427.652 386.421 426.288 396.801 424.828 408.941C424.174 414.397 423.51 420.212 422.837 426.387C422.564 429.837 422.141 433.37 421.773 436.985Z" fill="#FFA8A7"/>
<path d="M418.813 435.28L421.773 436.985L460.565 459.368L465.857 462.396L474.792 467.552L480.943 471.098L518.29 492.65L522.382 495.009C522.177 478.86 522.041 463.037 522.054 453.107C522.054 443.873 521.85 435.662 521.345 428.378C520.349 414.001 518.276 403.185 514.811 395.001C510.746 386.044 505.937 377.443 500.435 369.289C500.435 369.289 497.025 380.802 471.518 382.616H471.354C469.854 382.725 468.272 382.793 466.608 382.82H464.671C432.917 382.82 429.411 374.814 429.411 374.814C426.309 386.587 423.855 398.522 422.059 410.564C421.386 414.82 420.736 419.366 420.109 424.204C419.645 427.751 419.209 431.433 418.813 435.28Z" fill="#1D4BB7"/>
<path opacity="0.4" d="M418.813 435.28L421.773 436.985L460.565 459.368L465.857 462.396L474.792 467.552L480.943 471.098L518.29 492.65L522.382 495.009C522.177 478.86 522.041 463.037 522.054 453.107C522.054 443.873 521.85 435.662 521.345 428.378C520.349 414.001 518.276 403.185 514.811 395.001C510.746 386.044 505.937 377.443 500.435 369.289C500.435 369.289 497.025 380.802 471.518 382.616H471.354C469.854 382.725 468.272 382.793 466.608 382.82H464.671C432.917 382.82 429.411 374.814 429.411 374.814C426.309 386.587 423.855 398.522 422.059 410.564C421.386 414.82 420.736 419.366 420.109 424.204C419.645 427.751 419.209 431.433 418.813 435.28Z" fill="black"/>
<path opacity="0.2" d="M437.022 417.18C437.022 417.18 440.569 428.446 455.491 434.761L456.2 438.212L460.565 459.368L465.857 462.396L462.693 439.058L461.329 428.91C452.107 427.953 443.509 423.804 437.022 417.18Z" fill="black"/>
<path d="M482.403 270.14L497.407 271.723C507.337 274.151 511.824 278.543 512.847 287.313C513.325 291.405 515.793 302.317 512.329 315.957C509.192 328.342 500.817 358.65 500.817 358.65C500.817 358.65 520.09 383.802 523.582 426.932C488.309 449.956 434.199 437.585 419.563 423.672C420.791 410.496 429.207 374.336 430.257 362.592C430.257 362.592 429.48 344.246 428.02 336.294C416.863 324.114 418.281 312.465 423.287 303.067C432.535 285.717 446.475 270.468 450.99 270.481L482.403 270.14Z" fill="#1D4BB7"/>
<path opacity="0.7" d="M482.403 270.14L497.407 271.723C507.337 274.151 511.824 278.543 512.847 287.313C513.325 291.405 515.793 302.317 512.329 315.957C509.192 328.342 500.817 358.65 500.817 358.65C500.817 358.65 520.09 383.802 523.582 426.932C488.309 449.956 434.199 437.585 419.563 423.672C420.791 410.496 429.207 374.336 430.257 362.592C430.257 362.592 429.48 344.246 428.02 336.294C416.863 324.114 418.281 312.465 423.287 303.067C432.535 285.717 446.475 270.468 450.99 270.481L482.403 270.14Z" fill="white"/>
<path d="M469.404 364.052C469.404 364.325 469.404 364.57 469.404 364.775V365.129C469.395 365.243 469.395 365.357 469.404 365.47C469.922 370.926 470.536 376.723 471.191 382.629C471.191 382.629 471.191 382.629 471.191 382.711C471.286 383.666 471.395 384.621 471.504 385.589C473.509 403.39 475.896 422.417 477.738 439.74C478.188 443.941 478.597 448.033 478.965 452.016C479.538 457.977 480.152 464.51 480.78 471.112L518.126 492.663L522.218 495.023L532.652 501.038C530.552 480.374 525.655 432.497 522.927 410.891C522.613 408.45 522.204 406.008 521.74 403.58L521.372 401.807L521.209 401.084C521.031 400.266 520.854 399.475 520.663 398.67C520.472 397.865 520.295 397.183 520.117 396.46C519.694 394.81 519.244 393.187 518.753 391.605C518.521 390.841 518.303 390.077 518.058 389.327C517.812 388.576 517.608 387.826 517.362 387.09C516.871 385.617 516.394 384.171 515.889 382.766C515.895 382.739 515.895 382.711 515.889 382.684C515.657 382.016 515.412 381.32 515.166 380.693C514.839 379.765 514.498 378.865 514.157 377.965L513.747 376.887C513.543 376.396 513.365 375.919 513.175 375.441C512.506 373.763 511.811 372.168 511.197 370.681C511.06 370.353 510.91 370.026 510.774 369.712C510.638 369.399 510.419 368.935 510.256 368.553C509.846 367.598 509.437 366.712 509.042 365.825C508.878 365.443 508.701 365.075 508.537 364.72C508.373 364.365 508.141 363.902 507.964 363.52L507.705 362.974L507.432 362.442C507.414 362.372 507.382 362.307 507.337 362.251C507.299 362.152 507.254 362.056 507.2 361.965C507.167 361.904 507.14 361.84 507.118 361.774C507.005 361.581 506.905 361.38 506.818 361.174L505.904 359.4C505.904 359.305 505.809 359.237 505.782 359.155L505.427 358.5L516.776 311.442L522.422 288.063V287.681C522.163 285.608 520.431 275.828 510.447 272.855C504.81 271.4 499.036 270.54 493.219 270.29C490.982 270.154 488.964 270.099 487.313 270.059H484.708H483.139C483.136 270.09 483.136 270.122 483.139 270.154C483.057 270.359 482.826 270.972 482.471 271.927C482.433 272.087 482.378 272.242 482.307 272.391C482.306 272.414 482.306 272.436 482.307 272.459C479.852 279.197 472.964 298.812 469.54 315.848C468.94 318.794 468.449 321.672 468.094 324.4C467.071 332.925 467.822 347.193 469.404 364.052Z" fill="#FAFAFA"/>
<path d="M505.059 335.967C505.059 335.967 503.695 329.242 501.69 314.716C499.357 297.966 500.189 289.686 502.713 284.394L516.939 311.524L505.591 358.582C505.591 358.582 517.253 379.942 521.959 403.594C510.801 372.072 498.593 362.674 498.593 362.674L505.059 335.967Z" fill="#E6E6E6"/>
<path d="M455.218 259.638C450.799 259.638 450.281 260.374 446.475 265.475C444.211 268.517 429.875 292.183 429.875 292.183C429.875 292.183 441.278 277.179 449.885 272.623C451.542 271.652 453.335 270.934 455.205 270.495L455.218 259.638Z" fill="#EBEBEB"/>
<path d="M487.9 309.928C487.9 308.564 488.036 305.618 488.268 301.908C489.4 283.712 489.946 267.344 483.808 265.98L483.276 268.49C487.75 269.458 486.276 292.878 485.717 301.69C485.472 305.482 485.281 308.51 485.349 309.983L487.9 309.928Z" fill="#1D4BB7"/>
<path d="M508.36 190.796L498.812 198.612C498.293 198.018 497.9 197.324 497.659 196.573C497.417 195.822 497.331 195.03 497.407 194.244C497.482 193.459 497.717 192.698 498.097 192.006C498.477 191.315 498.994 190.708 499.616 190.224C500.872 189.186 502.476 188.667 504.102 188.773C505.727 188.88 507.25 189.603 508.36 190.796Z" fill="#263238"/>
<path d="M483.426 260.797C483.426 254.809 497.379 245.793 504.581 233.203C511.783 220.614 508.182 199.908 498.307 196.73C498.225 196.73 497.952 194.07 497.911 193.879C497.365 191.477 496.445 189.175 495.183 187.059C491.16 180.13 482.635 174.783 474.723 173.665C443.447 169.109 429.07 181.262 423.328 194.629C421.467 199.126 420.637 203.983 420.9 208.842C421.061 212.411 422.385 215.83 424.671 218.576C426.956 221.322 430.077 223.245 433.558 224.051L483.426 260.797Z" fill="#263238"/>
<path d="M440.037 190.155C433.912 192.883 428.088 202.2 428.184 228.416C428.266 250.649 435.086 256.268 438.523 257.919C441.96 259.569 448.685 258.724 455.218 257.728V270.495C455.218 270.495 450.321 275.31 452.04 278.338C453.759 281.366 460.101 283.93 469.963 280.834C481.134 277.329 483.685 269.922 483.685 269.922L483.944 241.906C483.944 241.906 487.695 245.847 494.31 240.064C499.766 235.277 501.731 227.079 497.625 222.578C493.519 218.076 488.254 217.722 483.508 222.755L480.098 220.955C474.014 220.245 465.094 219.222 458.519 215.908C441.66 207.328 439.914 198.026 440.037 190.155Z" fill="#FFA8A7"/>
<path d="M483.412 219.127L483.33 231.403C482.542 231.424 481.758 231.283 481.026 230.99C480.294 230.696 479.629 230.256 479.074 229.697C478.518 229.137 478.082 228.47 477.794 227.736C477.506 227.002 477.371 226.217 477.397 225.428C477.412 223.811 478.042 222.259 479.159 221.089C480.276 219.918 481.797 219.217 483.412 219.127Z" fill="#263238"/>
<path d="M439.464 220.873C439.458 221.449 439.283 222.012 438.961 222.49C438.639 222.968 438.183 223.342 437.65 223.563C437.118 223.785 436.532 223.846 435.965 223.737C435.399 223.629 434.876 223.357 434.463 222.955C434.05 222.552 433.764 222.038 433.64 221.474C433.516 220.911 433.561 220.324 433.768 219.785C433.975 219.247 434.336 218.781 434.805 218.446C435.275 218.111 435.832 217.921 436.409 217.899C436.805 217.89 437.2 217.96 437.57 218.105C437.939 218.251 438.276 218.468 438.56 218.745C438.845 219.022 439.071 219.352 439.226 219.718C439.381 220.083 439.462 220.476 439.464 220.873Z" fill="black"/>
<path d="M462.993 222.182C463.017 222.605 462.957 223.028 462.817 223.428C462.677 223.828 462.46 224.196 462.177 224.512C461.895 224.827 461.552 225.084 461.171 225.267C460.789 225.45 460.374 225.556 459.951 225.578C459.522 225.582 459.096 225.501 458.699 225.339C458.301 225.178 457.939 224.94 457.633 224.638C457.328 224.337 457.085 223.978 456.919 223.582C456.752 223.186 456.666 222.761 456.664 222.332C456.651 221.917 456.719 221.502 456.866 221.113C457.012 220.724 457.234 220.368 457.519 220.065C457.803 219.761 458.144 219.517 458.523 219.345C458.902 219.174 459.311 219.079 459.726 219.065C460.142 219.052 460.556 219.12 460.945 219.267C461.334 219.414 461.69 219.636 461.994 219.92C462.297 220.204 462.542 220.546 462.713 220.924C462.884 221.303 462.98 221.712 462.993 222.128V222.182Z" fill="black"/>
<path d="M431.662 215.376L439.259 212.361C439.084 211.85 438.804 211.381 438.439 210.983C438.073 210.584 437.63 210.266 437.136 210.047C436.641 209.828 436.107 209.713 435.567 209.71C435.026 209.707 434.491 209.816 433.994 210.029C432.993 210.45 432.193 211.24 431.758 212.236C431.324 213.231 431.29 214.355 431.662 215.376Z" fill="black"/>
<path d="M446.666 218.472L447.048 236.668L437.268 234.499L446.666 218.472Z" fill="#F28F8F"/>
<path d="M458.192 240.378L448.644 243.338C448.783 243.989 449.054 244.604 449.44 245.146C449.827 245.687 450.321 246.144 450.892 246.487C451.462 246.829 452.097 247.051 452.757 247.138C453.417 247.226 454.087 247.176 454.727 246.993C456.037 246.538 457.125 245.6 457.769 244.371C458.412 243.142 458.563 241.714 458.192 240.378Z" fill="#B16668"/>
<path d="M452.913 247.157C452.924 245.829 453.459 244.559 454.402 243.624C455.344 242.689 456.618 242.165 457.946 242.165C458.078 242.158 458.21 242.158 458.342 242.165C458.293 243.23 457.925 244.257 457.285 245.111C456.645 245.964 455.764 246.606 454.754 246.952C454.162 247.148 453.534 247.218 452.913 247.157Z" fill="#F28F8F"/>
<path d="M455.218 257.796C462.106 256.978 476.306 253.022 478.611 247.252C477.687 250.149 475.915 252.701 473.523 254.577C469.24 258.26 455.218 262.093 455.218 262.093V257.796Z" fill="#F28F8F"/>
<path d="M483.753 259.706C485.554 259.337 487.149 260.129 488.623 262.611C490.096 265.094 493.328 270.386 493.328 270.386C493.328 270.386 495.006 287.831 493.328 292.21C491.883 295.975 475.937 310.092 475.937 310.092C475.937 310.092 480.098 325.764 480.248 330.907C480.398 336.049 470.7 355.568 469.527 365.552C469.527 365.552 466.076 334.18 467.562 322.873C470.127 303.272 479.32 277.956 483.658 269.908L483.753 259.706Z" fill="#EBEBEB"/>
<path d="M474 324.632C475.065 322.1 476.319 319.651 477.751 317.307C480.016 313.556 482.812 309.956 485.335 309.028C485.718 308.876 486.124 308.793 486.536 308.782H486.672C487.087 308.806 487.495 308.908 487.872 309.083C489.864 309.969 491.964 312.684 493.669 315.807C495.415 318.944 496.854 322.242 497.966 325.655C498.621 327.769 498.334 332.257 497.557 337.386C496.029 347.343 492.633 359.782 490.737 362.238C489.347 363.953 487.705 365.448 485.867 366.671C486.993 367.415 488.207 368.015 489.482 368.457C490.203 368.721 490.965 368.854 491.732 368.853V370.64H491.514C490.703 370.627 489.899 370.494 489.127 370.244C487.339 369.664 485.651 368.813 484.121 367.721C482.507 368.682 480.754 369.391 478.925 369.821C478.063 370.028 477.172 370.083 476.292 369.985L476.51 368.212C477.274 368.277 478.043 368.217 478.788 368.035C480.1 367.692 481.365 367.188 482.553 366.534C480.822 365.156 479.305 363.529 478.052 361.706C476.988 360.082 475.678 354.49 474.696 348.066C474.096 344.233 473.605 340.114 473.332 336.363C473.032 331.125 473.168 326.637 474 324.632ZM479.634 360.724C480.914 362.57 482.484 364.196 484.285 365.538C486.198 364.357 487.903 362.869 489.332 361.133C491.105 358.828 494.379 346.688 495.852 337.113C496.602 332.271 496.875 328.083 496.275 326.201C495.162 322.746 493.69 319.418 491.883 316.271C490 313.024 487.995 310.637 486.604 310.583C484.953 310.583 482.28 313.57 479.784 317.403C479.279 318.153 478.802 318.972 478.338 319.79C477.321 321.552 476.41 323.374 475.61 325.246C474.86 327.101 474.778 331.288 475.119 336.158C475.31 338.886 475.61 341.737 475.992 344.574C477.029 351.98 478.488 358.923 479.634 360.683V360.724Z" fill="#455A64"/>
<path d="M473.85 368.935C473.829 369.456 473.963 369.971 474.235 370.415C474.507 370.86 474.904 371.214 475.377 371.432C475.85 371.651 476.378 371.724 476.892 371.642C477.407 371.561 477.886 371.329 478.268 370.975C478.651 370.621 478.92 370.161 479.041 369.655C479.162 369.148 479.13 368.617 478.949 368.128C478.768 367.639 478.447 367.215 478.024 366.91C477.602 366.604 477.099 366.431 476.578 366.411C475.882 366.386 475.204 366.637 474.693 367.11C474.182 367.583 473.879 368.239 473.85 368.935Z" fill="#263238"/>
<path d="M489.141 369.644C489.117 370.165 489.248 370.682 489.518 371.128C489.788 371.574 490.185 371.93 490.658 372.151C491.13 372.371 491.658 372.446 492.173 372.367C492.689 372.287 493.169 372.056 493.553 371.702C493.937 371.349 494.207 370.89 494.33 370.383C494.452 369.876 494.421 369.344 494.241 368.854C494.06 368.365 493.738 367.94 493.316 367.634C492.894 367.328 492.39 367.154 491.869 367.134C491.525 367.12 491.181 367.173 490.858 367.291C490.535 367.41 490.238 367.59 489.984 367.824C489.731 368.057 489.526 368.337 489.381 368.65C489.237 368.962 489.155 369.3 489.141 369.644Z" fill="#263238"/>
<path d="M473.55 336.335L475.064 336.226C475.219 336.212 475.362 336.139 475.463 336.022C475.565 335.905 475.618 335.753 475.61 335.599C475.296 330.593 475.46 326.91 476.074 325.437C478.72 318.972 484.258 310.869 486.59 310.965C488.923 311.06 493.751 319.613 495.852 326.269C496.329 327.797 496.179 331.479 495.456 336.444C495.432 336.596 495.469 336.751 495.558 336.876C495.648 337.001 495.782 337.086 495.934 337.113L497.434 337.345C497.591 337.364 497.75 337.32 497.875 337.223C498 337.126 498.082 336.983 498.102 336.826C498.934 331.261 499.03 327.442 498.402 325.464C497.284 321.89 492.005 308.51 486.699 308.291C481.393 308.073 474.996 320.949 473.578 324.428C472.8 326.337 472.568 330.156 472.923 335.762C472.933 335.92 473.005 336.068 473.121 336.175C473.238 336.282 473.392 336.339 473.55 336.335Z" fill="#1D4BB7"/>
<path d="M506.259 272.677C516.244 272.514 520.854 275.883 527.183 284.353C532.202 291.078 551.735 327.415 558.214 338.027L593.487 319.176C600.621 314.252 602.926 306.477 607.441 301.935C611.955 297.393 616.634 296.479 621.599 292.728C626.564 288.977 628.583 286.058 630.015 289.564C631.447 293.069 625.923 298.743 624.873 300.148C623.822 301.553 618.284 304.677 625.473 304.786C632.661 304.895 646.887 297.448 650.352 296.125C653.817 294.801 653.612 298.934 651.907 301.581C650.202 304.227 650.284 311.701 647.406 316.025C644.364 320.608 642.7 322.6 635.921 325.573C629.619 328.301 616.388 329.393 609.691 333.58C602.994 337.767 586.394 352.526 576.3 361.378C563.465 372.631 554.613 374.691 547.466 367.939C540.523 360.669 533.485 352.144 530.047 347.82C520.786 336.158 506.136 309.628 506.136 309.628C506.136 309.628 499.794 295.988 506.259 272.677Z" fill="#FFA8A7"/>
<path d="M504.881 271.682C519.585 271.682 523.977 277.001 531.507 289.291C539.036 301.581 558.35 336.758 558.35 336.758L586.162 322.191C586.162 322.191 591.168 333.212 596.488 344.574C596.488 344.574 580.747 358.214 573.3 364.666C565.852 371.117 555.977 376.178 546.824 368.28C537.045 359.851 505.332 316.053 505.332 316.053C497.802 302.385 499.48 281.666 504.881 271.682Z" fill="#F0F0F0"/>
<path d="M558.35 336.758C553.808 342.105 548.311 348.12 548.557 352.853C548.557 352.853 545.447 348.652 556.372 333.171L558.35 336.758Z" fill="#E0E0E0"/>
<path d="M610.96 205.582L622.335 212.102L622.295 199.035L630.806 194.124L650.652 205.582V228.497L670.498 239.955V262.87L661.987 267.78L650.652 261.233V274.341L642.141 279.252L622.295 267.78V244.865L602.448 233.408V210.492L610.96 205.582Z" fill="#1D4BB7"/>
<path d="M661.987 244.865V267.78L642.141 256.323V279.252L622.295 267.78V244.865L602.448 233.408V210.492L622.363 221.991L622.295 199.035L642.141 210.492V233.408L661.987 244.865Z" fill="#1D4BB7"/>
<g opacity="0.2">
<path opacity="0.2" d="M661.987 267.78L670.498 262.87V239.955L661.987 244.865V267.78Z" fill="black"/>
<path opacity="0.2" d="M642.141 210.492L650.652 205.582V228.497L642.141 233.408V210.492Z" fill="black"/>
<path opacity="0.2" d="M642.141 279.252L650.652 274.341V261.233L642.141 256.323V279.252Z" fill="black"/>
</g>
<g opacity="0.5">
<path opacity="0.5" d="M642.141 233.408L650.652 228.497L670.498 239.955L661.987 244.865L642.141 233.408Z" fill="white"/>
<path opacity="0.5" d="M622.295 199.035L630.806 194.124L650.652 205.582L642.141 210.492L622.295 199.035Z" fill="white"/>
<path opacity="0.5" d="M602.448 210.492L610.96 205.582L622.335 212.102L622.363 221.991L602.448 210.492Z" fill="white"/>
</g>
<path d="M284.527 159.588C284.887 159.276 285.276 158.997 285.687 158.756C287.132 157.896 293.68 154.132 294.021 153.927C297.485 151.718 302.968 152.209 307.852 154.677C314.849 158.21 320.673 165.671 325.12 178.097C325.12 178.097 329.621 174.865 331.081 174.005C334.695 172.028 338.924 172.982 343.684 176.079C349.044 179.57 352.7 184.099 356.042 190.946V191.069C358.938 196.883 360.521 203.262 360.679 209.756C360.679 224.119 354.8 230.966 347.148 236.108C344.966 237.581 339.196 240.678 338.623 241.06C334.005 244.109 328.898 246.342 323.524 247.661L315.981 249.421L308.438 238.959C302.947 231.245 297.905 223.22 293.339 214.925C285.687 200.944 279.699 187.25 279.808 172.941C279.917 166.817 281.676 162.316 284.527 159.588Z" fill="#1D4BB7"/>
<path opacity="0.3" d="M284.527 159.588C284.887 159.276 285.276 158.997 285.687 158.756C287.132 157.896 293.68 154.132 294.021 153.927C297.485 151.718 302.968 152.209 307.852 154.677C314.849 158.21 320.673 165.671 325.12 178.097C325.12 178.097 329.621 174.865 331.081 174.005C334.695 172.028 338.924 172.982 343.684 176.079C349.044 179.57 352.7 184.099 356.042 190.946V191.069C358.938 196.883 360.521 203.262 360.679 209.756C360.679 224.119 354.8 230.966 347.148 236.108C344.966 237.581 339.196 240.678 338.623 241.06C334.005 244.109 328.898 246.342 323.524 247.661L315.981 249.421L308.438 238.959C302.947 231.245 297.905 223.22 293.339 214.925C285.687 200.944 279.699 187.25 279.808 172.941C279.917 166.817 281.676 162.316 284.527 159.588Z" fill="black"/>
<path d="M284.527 159.588C284.887 159.276 285.276 158.997 285.687 158.756C287.132 157.896 293.68 154.132 294.021 153.927C297.485 151.718 302.969 152.209 307.852 154.677C314.849 158.21 320.673 165.671 325.12 178.097C325.12 178.097 329.621 174.865 331.081 174.005C334.695 172.028 338.924 172.982 343.684 176.079C349.044 179.57 352.7 184.099 356.042 190.946V191.069C356.192 191.369 356.315 191.669 356.451 191.969L299.163 225.005C297.131 221.704 295.153 218.363 293.27 214.925C285.618 200.944 279.63 187.25 279.74 172.941C279.917 166.817 281.676 162.316 284.527 159.588Z" fill="#1D4BB7"/>
<path opacity="0.15" d="M284.527 159.588C284.887 159.276 285.276 158.997 285.687 158.756C287.132 157.896 293.68 154.132 294.021 153.927C297.485 151.718 302.969 152.209 307.852 154.677C314.849 158.21 320.673 165.671 325.12 178.097C325.12 178.097 329.621 174.865 331.081 174.005C334.695 172.028 338.924 172.982 343.684 176.079C349.044 179.57 352.7 184.099 356.042 190.946V191.069C356.192 191.369 356.315 191.669 356.451 191.969L299.163 225.005C297.131 221.704 295.153 218.363 293.27 214.925C285.618 200.944 279.63 187.25 279.74 172.941C279.917 166.817 281.676 162.316 284.527 159.588Z" fill="black"/>
<path d="M325.161 178.043L317.495 188.041L305.137 173.419L319.105 165.358C321.592 169.346 323.624 173.601 325.161 178.043Z" fill="#1D4BB7"/>
<path opacity="0.3" d="M325.161 178.043L317.495 188.041L305.137 173.419L319.105 165.358C321.592 169.346 323.624 173.601 325.161 178.043Z" fill="black"/>
<path d="M284.527 159.588C287.869 156.601 293.952 156.86 299.327 159.588C306.651 163.298 312.707 171.305 317.236 184.863C321.764 176.542 327.821 176.283 335.145 181.044C340.519 184.535 344.175 189.064 347.503 195.911L347.571 196.034C350.457 201.856 352.035 208.238 352.195 214.734C352.195 229.097 346.303 235.945 338.664 241.087C334.046 244.136 328.939 246.369 323.565 247.689L316.022 249.448L308.479 238.986C302.988 231.272 297.946 223.248 293.38 214.953C285.728 200.972 279.74 187.277 279.849 172.969C279.917 166.817 281.676 162.316 284.527 159.588Z" fill="#1D4BB7"/>
<g opacity="0.07">
<path opacity="0.07" d="M290.965 158.224C288.862 158.128 286.795 158.791 285.141 160.093C285.112 160.151 285.07 160.203 285.018 160.243C282.208 162.807 280.64 167.363 280.626 173.037C280.626 187.973 287.446 202.472 294.062 214.666C298.594 222.934 303.604 230.932 309.066 238.618L316.308 248.698L323.36 247.048C328.654 245.747 333.687 243.551 338.241 240.555C345.061 235.917 351.5 229.643 351.445 214.803C351.3 208.421 349.769 202.147 346.957 196.416V196.293C343.602 189.405 339.987 185.054 334.859 181.726C332.476 179.959 329.635 178.917 326.675 178.725C323.21 178.725 320.359 180.866 317.959 185.272C317.899 185.39 317.807 185.489 317.694 185.556C317.58 185.624 317.45 185.658 317.318 185.654H317.25C317.109 185.641 316.975 185.588 316.864 185.501C316.752 185.413 316.669 185.296 316.622 185.163C312.298 172.218 306.556 164.089 299.081 160.311C296.586 159.003 293.822 158.289 291.006 158.224H290.965ZM291.006 157.501C293.936 157.561 296.811 158.299 299.408 159.656C306.733 163.366 312.789 171.373 317.318 184.931C319.937 180.102 323.074 177.988 326.675 177.988C329.765 178.191 332.733 179.275 335.227 181.112C340.601 184.604 344.257 189.132 347.585 195.979L347.653 196.102C350.539 201.924 352.117 208.307 352.277 214.803C352.277 229.165 346.385 236.013 338.746 241.155C334.128 244.204 329.021 246.437 323.647 247.757L316.104 249.516L308.561 239.054C303.069 231.341 298.028 223.316 293.461 215.021C285.809 201.04 279.821 187.345 279.93 173.037C279.93 166.885 281.717 162.316 284.568 159.697C286.368 158.23 288.646 157.478 290.965 157.583L291.006 157.501Z" fill="black"/>
</g>
<path d="M285.359 198.257L300.036 206.741L305.492 186.895C305.569 186.595 305.746 186.33 305.994 186.144C306.242 185.958 306.546 185.862 306.856 185.872C307.175 185.866 307.486 185.971 307.735 186.171C307.985 186.37 308.156 186.651 308.22 186.963L316.718 225.783L323.865 206.223C323.879 205.861 324.037 205.52 324.303 205.275C324.569 205.029 324.922 204.899 325.284 204.914C325.645 204.928 325.987 205.086 326.232 205.352C326.478 205.618 326.607 205.97 326.593 206.332L331.422 223.478L347.571 232.807C347.04 233.58 346.466 234.322 345.853 235.031L329.485 225.605C329.168 225.422 328.934 225.124 328.83 224.773L325.024 211.243L317.7 231.239C317.602 231.519 317.417 231.759 317.171 231.924C316.925 232.089 316.631 232.169 316.336 232.153C316.033 232.137 315.744 232.022 315.514 231.824C315.285 231.627 315.127 231.358 315.067 231.061L306.747 193.115L302.355 209.224C302.303 209.431 302.202 209.623 302.062 209.785C301.922 209.946 301.747 210.072 301.549 210.153C301.351 210.234 301.137 210.268 300.924 210.251C300.711 210.234 300.505 210.167 300.322 210.056L287.283 202.54C286.532 201.108 285.932 199.689 285.359 198.257Z" fill="white"/>
<path d="M223.761 563.046C224.32 564.894 224.367 566.86 223.897 568.734C223.352 569.879 219.942 573.644 212.985 575.008C206.029 576.372 196.467 575.008 192.348 574.762C188.229 574.517 175.298 576.126 171.192 576.645C164.727 577.518 159.762 576.099 157.348 573.767C156.957 573.298 156.669 572.752 156.502 572.164C156.335 571.577 156.293 570.961 156.379 570.357C156.393 568.8 156.623 567.253 157.061 565.76L223.761 563.046Z" fill="#263238"/>
<path d="M158.125 558.995C158.002 559.527 157.88 560.072 157.771 560.618C157.141 563.362 156.943 566.188 157.184 568.993C158.016 571.039 160.294 572.171 162.135 572.744C167.005 574.299 170.701 574.108 176.089 573.03C181.508 572.241 186.983 571.903 192.457 572.021C196.699 572.307 202.537 573.126 206.779 572.73C210.386 572.58 213.946 571.852 217.323 570.575C220.146 569.375 223.038 567.847 223.734 564.901C224.566 558.763 221.988 556.062 219.082 554.343C216.177 552.625 212.044 552.761 207.625 552.475C203.628 552.202 200.709 552.202 197.149 551.929C194.071 551.779 191.013 551.355 188.01 550.661C185.282 549.815 182.554 546.391 181.436 546.269C181.436 546.269 163.636 546.132 161.944 546.269C159.98 546.432 159.38 552.516 159.135 553.839C158.944 554.875 158.903 555.994 158.63 556.99C158.453 557.658 158.289 558.326 158.125 558.995Z" fill="#37474F"/>
<path d="M212.972 571.912C213.531 567.492 214.336 557.917 206.152 552.379H205.129C208.804 551.316 212.706 551.316 216.382 552.379C222.888 554.111 225.78 559.376 224.156 564.942C224.129 564.887 222.683 570.275 212.972 571.912Z" fill="#FAFAFA"/>
<path d="M189.224 550.974C191.857 553.307 192.771 558.613 192.771 558.613C193.112 560.604 196.713 560.904 196.372 558.981C195.822 556.337 194.761 553.825 193.248 551.588C192.014 550.937 190.597 550.721 189.224 550.974Z" fill="#FAFAFA"/>
<path d="M196.604 551.888C198.589 553.832 199.887 556.37 200.3 559.117C200.668 561.027 203.669 561 203.451 559.117C203.451 559.117 203.11 554.412 200.3 552.216C199.756 551.867 199.136 551.656 198.492 551.599C197.849 551.542 197.201 551.641 196.604 551.888Z" fill="#FAFAFA"/>
<path d="M161.399 533.324C161.399 533.324 161.876 544.768 162.504 548.519C162.886 550.756 165.818 553.102 173.116 552.857C178.244 552.679 182.282 553.102 182.077 549.092L181.627 537.403L161.399 533.324Z" fill="#FFA8A7"/>
<path d="M149.955 506.29C150.214 509.413 150.637 512.237 149.355 515.674C147.527 520.612 143.653 522.876 141.375 524.813C138.979 527.187 136.768 529.74 134.76 532.451C132.523 535.179 131.937 536.802 128.581 539.776C126.909 541.063 124.931 541.894 122.842 542.188C120.752 542.483 118.622 542.229 116.66 541.454C113.754 540.212 112.745 539.23 112.922 534.77C113.1 530.31 127.313 528.796 127.313 528.796L149.955 506.29Z" fill="#263238"/>
<path d="M114.764 521.485C113.55 521.921 113.25 524.117 113.059 528.482C112.922 531.783 111.463 536.666 116.25 538.698C120.111 540.376 126.276 539.258 128.881 536.148C132.127 532.26 134.337 528.837 138.975 524.103C143.067 520.011 147.159 518.647 148.973 510.395C150.132 505.103 149.218 502.921 145.481 501.407C140.339 499.32 132.277 506.126 128.24 507.204C124.775 508.117 115.978 521.048 114.764 521.485Z" fill="#37474F"/>
<path d="M128.24 507.204L128.922 506.972C131.222 507.057 133.459 507.743 135.411 508.961C137.364 510.179 138.964 511.887 140.052 513.914C140.734 515.347 138.688 516.465 137.324 515.347C134.46 509.891 128.567 508.718 126.208 508.458C126.788 507.901 127.481 507.473 128.24 507.204Z" fill="#FAFAFA"/>
<path d="M124.926 509.686C127.084 509.888 129.159 510.624 130.964 511.826C132.769 513.028 134.246 514.66 135.265 516.574C135.947 517.938 133.832 519.125 132.537 517.938C131.563 516.231 130.229 514.758 128.627 513.62C127.025 512.482 125.194 511.707 123.261 511.35C123.848 510.805 124.394 510.218 124.926 509.686Z" fill="#FAFAFA"/>
<path d="M114.068 513.601L114.764 522.808C114.764 522.808 120.615 527.077 129.004 523.162C129.249 522.658 129.959 514.419 129.959 514.419L114.068 513.601Z" fill="#FFA8A7"/>
<path d="M146.613 516.465C146.613 516.465 146.218 506.685 132.318 505.335L131.514 505.758C133.095 503.305 135.522 501.519 138.334 500.738C142.944 499.552 146.599 500.738 149.027 503.657C151.455 506.576 149.014 514.569 146.613 516.465Z" fill="#FAFAFA"/>
<path d="M110.017 452.275C112.008 436.166 112.745 427.191 112.745 427.191C112.745 427.191 113.141 404.508 111.763 383.543C111.163 374.35 110.849 364.175 110.658 354.899C110.404 344.685 111.217 334.473 113.086 324.428C113.086 324.428 184.409 310.242 185.296 336.403C186.374 367.775 186.237 421.394 187.451 441.868C188.12 453.366 186.96 462.901 186.237 485.243C185.651 503.766 185.828 549.351 185.828 549.351C177.971 560.14 159.421 551.915 159.421 551.915C159.421 551.915 153.692 487.903 152.847 474.672C151.946 460.446 153.447 453.244 153.447 453.244L146.095 386.967C146.095 386.967 145.536 408.232 144.908 419.703C144.281 431.174 142.603 438.226 139.616 459.627C137.024 478.205 131.514 525.618 131.514 525.618C121.966 531.265 112.745 525.618 112.745 525.618C112.745 525.618 108.025 468.384 110.017 452.275Z" fill="#455A64"/>
<path d="M119.756 360.737C119.756 360.737 128.69 372.14 140.216 377.037C140.216 377.037 145.208 417.125 145.167 416.334L146.463 375.987C146.463 375.987 129.304 368.403 119.756 360.737Z" fill="#37474F"/>
<path d="M120.001 231.88C112.322 230.162 103.633 235.645 97.8501 247.88C92.2577 259.583 76.9809 289.141 76.6126 297.42C76.217 306 114.382 332.025 113.441 331.52C113.141 331.37 120.029 311.838 120.029 311.838L101.492 296.493L111.572 275.733L120.001 231.88Z" fill="#FFA8A7"/>
<path d="M124.039 230.039C117.574 229.248 105.857 231.689 101.383 239.464C94.8903 250.717 88.9705 263.73 81.4276 280.548C81.4276 280.548 87.02 292.66 103.115 293.806L112.759 276.892L124.039 230.039Z" fill="#37474F"/>
<path d="M156.584 219.904L155.465 243.774L131.814 242.506L132.537 214.776L156.584 219.904Z" fill="#FFA8A7"/>
<path d="M108.585 242.056C110.576 235.549 117.451 230.189 126.139 229.93C128.076 229.93 132.141 229.93 132.141 229.93C133.123 233.953 145.44 235.386 155.97 232.971C159.148 233.817 172.338 237.063 175.066 237.882C182.636 240.391 184.969 248.112 186.142 272.8C186.142 272.8 185.91 321.468 186.142 344.697C172.829 351.721 152.26 350.848 137.624 349.361C114.627 347.043 111.204 338.709 111.204 338.709C112.172 325.164 111.586 320.063 111.204 306.696C110.917 296.643 108.026 286.017 107.112 274.628C105.761 257.701 107.234 246.53 108.585 242.056Z" fill="#1D4BB7"/>
<path d="M160.28 224.433C165.736 224.051 172.556 228.402 174.316 237.718L169.869 236.531L160.28 224.433Z" fill="#1D4BB7"/>
<path opacity="0.3" d="M160.28 224.433C165.736 224.051 172.556 228.402 174.316 237.718L169.869 236.531L160.28 224.433Z" fill="black"/>
<path d="M156.284 226.424C152.192 227.788 140.257 227.597 136.26 226.424C132.264 225.251 132.305 223.478 132.305 223.478V221.473C130 221.466 127.748 222.166 125.853 223.478C123.302 225.551 118.91 233.026 119.033 236.613C119.156 240.201 126.822 249.667 141.607 249.435C156.393 249.203 164.7 243.733 167.251 240.132L169.815 236.518C169.815 236.518 166.309 229.316 162.858 226.288C161.089 224.573 158.82 223.464 156.379 223.123L156.284 226.424Z" fill="#1D4BB7"/>
<path opacity="0.2" d="M156.284 226.424C152.192 227.788 140.257 227.597 136.26 226.424C132.264 225.251 132.305 223.478 132.305 223.478V221.473C130 221.466 127.748 222.166 125.853 223.478C123.302 225.551 118.91 233.026 119.033 236.613C119.156 240.201 126.822 249.667 141.607 249.435C156.393 249.203 164.7 243.733 167.251 240.132L169.815 236.518C169.815 236.518 166.309 229.316 162.858 226.288C161.089 224.573 158.82 223.464 156.379 223.123L156.284 226.424Z" fill="black"/>
<path d="M172.502 190.633C172.502 190.633 178.135 199.185 177.494 200.017C176.853 200.849 172.706 201.627 172.706 201.627L172.502 190.633Z" fill="#F28F8F"/>
<path d="M156.843 166.954C168.246 169.368 172.802 172.71 173.511 192.201C174.193 211.161 171.806 217.408 169.324 219.959C167.646 221.677 158.303 221.991 153.597 220.682C147.704 219.059 134.378 214.339 128.145 204.818C120.806 193.606 118.883 178.411 126.781 172.178C137.788 163.407 152.192 165.972 156.843 166.954Z" fill="#FFA8A7"/>
<path d="M169.324 219.945C167.96 221.309 161.426 221.827 156.516 221.227L156.584 218.404C160.652 219.905 165.015 220.433 169.324 219.945Z" fill="#F28F8F"/>
<path d="M175.025 174.278C172.184 176.315 168.661 177.162 165.204 176.638C165.273 178.166 164.863 179.678 164.031 180.962C162.874 182.713 161.119 183.983 159.094 184.536C160.342 186.983 161.005 189.686 161.031 192.433C161.107 193.295 160.922 194.161 160.499 194.916C160.368 195.19 160.162 195.422 159.905 195.584C159.648 195.746 159.35 195.832 159.046 195.832C158.742 195.832 158.444 195.746 158.187 195.584C157.93 195.422 157.724 195.19 157.593 194.916C156.952 193.465 156.146 192.092 155.193 190.824C153.956 189.344 152.218 188.373 150.31 188.096C143.149 187.318 142.248 196.689 145.113 200.576C149.805 206.933 153.788 202.622 153.788 202.622C153.971 205.602 153.518 208.586 152.46 211.378C151.401 214.169 149.762 216.703 147.65 218.813C142.559 220.313 137.164 220.449 132.005 219.209C125.648 210.465 121.652 206.21 118.256 198.667C111.081 182.694 114.545 172.669 120.097 168.441C121.188 161.089 126.985 157.788 133.601 156.274C143.476 153.996 152.697 159.861 162.49 157.638C164.097 157.301 165.686 156.882 167.25 156.383C167.853 156.1 168.54 156.056 169.174 156.26C169.525 156.493 169.8 156.824 169.965 157.212C170.129 157.6 170.177 158.028 170.101 158.442C169.978 160.325 168.069 162.412 167.1 163.421C169.239 163.617 171.395 163.493 173.498 163.053C174.228 162.916 174.977 162.916 175.707 163.053C176.508 163.379 177.185 163.951 177.641 164.686C178.097 165.421 178.308 166.282 178.244 167.145C178.236 168.493 177.945 169.824 177.391 171.053C176.837 172.282 176.031 173.38 175.025 174.278Z" fill="#263238"/>
<path d="M119.92 170.814L113.1 166.722C113.642 165.817 114.522 165.166 115.545 164.91C116.568 164.654 117.651 164.815 118.556 165.358C119.46 165.9 120.112 166.78 120.368 167.803C120.623 168.827 120.462 169.909 119.92 170.814Z" fill="#263238"/>
<path d="M208.798 278.256C210.344 272.182 211.835 266.098 213.272 260.006C214.636 254.4 216.736 247.907 214.813 242.178C213.72 239.676 212.347 237.306 210.721 235.113C209.314 232.801 208.127 230.362 207.175 227.829C206.697 226.601 206.261 225.347 205.811 224.105C205.361 222.864 204.72 222.155 205.02 220.968C206.015 217.081 211.035 222.182 212.058 223.778C212.512 224.616 213.041 225.41 213.64 226.151C214.295 226.847 215.891 227.72 216.655 226.697C216.909 226.287 217.05 225.816 217.064 225.333C217.582 219.345 215.427 213.984 213.64 208.392C213.358 207.658 213.188 206.885 213.135 206.101C213.103 205.709 213.156 205.314 213.29 204.945C213.424 204.575 213.637 204.239 213.913 203.959C214.357 203.618 214.884 203.4 215.44 203.329C215.996 203.257 216.561 203.333 217.077 203.55C218.087 203.891 218.96 204.532 219.969 204.846C220.978 205.159 221.729 205.159 222.615 205.391C224.719 205.86 226.744 206.627 228.63 207.669C231.904 209.592 233.35 212.402 234.209 215.976C235.242 220.365 235.591 224.888 235.246 229.384C235.014 232.371 234.482 235.317 234.114 238.264L232.886 248.125C232.054 254.7 231.809 287.545 230.676 294.079C229.544 300.612 227.362 304.991 222.192 307.159C214.69 310.215 202.564 296.411 195.676 289.264L208.798 278.256Z" fill="#FFA8A7"/>
<path d="M211.539 274.532C216.368 278.147 222.383 284.162 223.597 290.191C223.597 290.191 224.798 279.347 211.539 269.731V274.532Z" fill="#F28F8F"/>
<path d="M175.448 238.032C180.086 238.468 187.724 238.632 195.499 246.993C204.515 256.76 218.414 276.019 218.414 276.019C218.414 276.019 216.6 291.351 201.841 296.847C201.841 296.847 180.386 276.387 175.775 267.576C171.165 258.765 170.128 244.156 175.448 238.032Z" fill="#37474F"/>
<path d="M181.627 205.623L187.492 202.472L184.123 199.594L196.304 193.893L190.984 190.81L204.106 183.826L196.304 190.715L202.646 193.893L188.338 200.085L191.871 203.618L181.627 205.623Z" fill="#1D4BB7"/>
<path d="M178.64 197.889L182.459 194.234L180.372 192.692L183.728 188.71L180.508 187.618L181.627 182.572L179.363 188.014L181.627 188.996L177.999 192.979L180.454 194.725L178.64 197.889Z" fill="#1D4BB7"/>
<path d="M180.863 211.393L188.065 217.013L190.725 213.098L197.027 216.522L199.605 211.679L209.357 214.175L198.077 208.774L194.844 213.234L189.606 210.424L187.424 214.175L180.863 211.393Z" fill="#1D4BB7"/>
<path d="M230.936 311.961C230.716 311.779 230.434 311.691 230.15 311.716C229.867 311.742 229.605 311.879 229.422 312.097C228.027 313.663 226.215 314.8 224.199 315.375C222.182 315.95 220.043 315.939 218.032 315.343C217.895 315.295 217.749 315.275 217.604 315.284C217.459 315.294 217.317 315.332 217.188 315.398C217.058 315.463 216.943 315.555 216.849 315.666C216.755 315.777 216.685 315.906 216.643 316.045C216.601 316.185 216.587 316.331 216.602 316.475C216.618 316.62 216.663 316.76 216.734 316.887C216.805 317.014 216.901 317.125 217.017 317.214C217.132 317.302 217.264 317.367 217.405 317.403C219.816 318.117 222.382 318.126 224.798 317.43C227.215 316.734 229.382 315.362 231.045 313.475C231.138 313.369 231.21 313.245 231.255 313.111C231.3 312.977 231.318 312.836 231.308 312.695C231.298 312.554 231.259 312.416 231.196 312.29C231.132 312.164 231.043 312.052 230.936 311.961Z" fill="#E0E0E0"/>
<path d="M229.844 319.176C229.653 319.016 229.412 318.929 229.162 318.929C228.913 318.929 228.672 319.016 228.48 319.176C227.37 319.979 226.098 320.529 224.752 320.788C223.407 321.047 222.021 321.009 220.692 320.677C220.41 320.624 220.119 320.685 219.881 320.846C219.644 321.007 219.48 321.255 219.423 321.536C219.396 321.674 219.396 321.816 219.423 321.954C219.451 322.092 219.506 322.223 219.584 322.34C219.663 322.457 219.764 322.557 219.881 322.634C219.999 322.711 220.131 322.765 220.269 322.791C221.912 323.172 223.619 323.188 225.269 322.837C226.919 322.486 228.472 321.776 229.817 320.758C229.925 320.667 230.013 320.555 230.077 320.429C230.141 320.303 230.179 320.165 230.189 320.024C230.199 319.883 230.181 319.742 230.136 319.608C230.091 319.474 230.02 319.35 229.926 319.244C229.902 319.218 229.875 319.195 229.844 319.176Z" fill="#E0E0E0"/>
<path d="M95.9132 236.504C96.0391 236.569 96.1769 236.609 96.3183 236.62C96.4597 236.632 96.602 236.614 96.7367 236.57C96.8714 236.525 96.9959 236.454 97.1027 236.361C97.2096 236.268 97.2968 236.154 97.359 236.027C98.3546 234.181 99.8531 232.655 101.681 231.627C103.508 230.598 105.59 230.109 107.685 230.216C107.826 230.224 107.968 230.204 108.102 230.158C108.235 230.111 108.359 230.038 108.464 229.944C108.678 229.753 108.807 229.486 108.823 229.2C108.84 228.914 108.742 228.634 108.551 228.42C108.361 228.206 108.093 228.077 107.807 228.061C105.293 227.929 102.794 228.518 100.602 229.757C98.4108 230.997 96.6185 232.836 95.4358 235.058C95.3113 235.314 95.2915 235.608 95.3807 235.878C95.4698 236.148 95.6609 236.373 95.9132 236.504Z" fill="#E0E0E0"/>
<path d="M95.3131 229.275C95.5415 229.395 95.8057 229.428 96.0567 229.368C96.3076 229.308 96.5281 229.158 96.6771 228.948C97.5576 227.919 98.6493 227.092 99.8778 226.522C101.106 225.952 102.443 225.654 103.797 225.647C103.939 225.641 104.078 225.608 104.206 225.549C104.335 225.49 104.451 225.406 104.547 225.302C104.643 225.198 104.718 225.076 104.767 224.944C104.817 224.811 104.839 224.67 104.834 224.528C104.828 224.387 104.795 224.248 104.736 224.119C104.677 223.99 104.593 223.874 104.489 223.778C104.385 223.682 104.264 223.607 104.131 223.558C103.998 223.509 103.857 223.486 103.715 223.492C102.033 223.508 100.375 223.893 98.8578 224.619C97.3403 225.345 96.0001 226.394 94.9311 227.693C94.7774 227.923 94.7199 228.205 94.7709 228.478C94.8218 228.75 94.9772 228.992 95.204 229.152L95.3131 229.275Z" fill="#E0E0E0"/>
<path d="M76.2444 307.896C76.381 307.646 76.4132 307.352 76.334 307.079C76.2548 306.805 76.0705 306.574 75.8216 306.436C74.0251 305.356 72.5726 303.788 71.6332 301.914C70.6938 300.04 70.3062 297.937 70.5156 295.852C70.5326 295.711 70.5213 295.568 70.4822 295.432C70.4432 295.295 70.3772 295.168 70.2883 295.057C70.1993 294.947 70.0891 294.855 69.9642 294.788C69.8392 294.72 69.7021 294.679 69.5608 294.665C69.2768 294.634 68.9923 294.718 68.7698 294.897C68.5473 295.076 68.405 295.336 68.3741 295.62C68.1307 298.114 68.6001 300.626 69.7277 302.865C70.8552 305.103 72.5947 306.975 74.744 308.264C74.8661 308.34 75.0023 308.392 75.1445 308.414C75.2868 308.437 75.4321 308.431 75.572 308.397C75.7118 308.363 75.8434 308.301 75.9589 308.214C76.0744 308.128 76.1715 308.02 76.2444 307.896Z" fill="#E0E0E0"/>
<path d="M69.0015 308.155C69.1233 307.933 69.1641 307.675 69.1168 307.426C69.0695 307.178 68.9371 306.953 68.7423 306.791C67.7526 305.865 66.9755 304.736 66.4645 303.481C65.9535 302.226 65.7208 300.875 65.7824 299.521C65.7824 299.235 65.6689 298.961 65.4668 298.759C65.2647 298.557 64.9907 298.443 64.7049 298.443C64.4191 298.443 64.145 298.557 63.9429 298.759C63.7409 298.961 63.6273 299.235 63.6273 299.521C63.5687 301.2 63.8749 302.872 64.5248 304.422C65.1748 305.971 66.1529 307.361 67.3919 308.496C67.503 308.584 67.6303 308.649 67.7665 308.688C67.9027 308.726 68.0451 308.738 68.1857 308.721C68.3263 308.705 68.4623 308.661 68.5859 308.592C68.7095 308.523 68.8183 308.43 68.906 308.319L69.0015 308.155Z" fill="#E0E0E0"/>
<path d="M194.476 437.844C194.221 437.973 194.027 438.197 193.935 438.467C193.843 438.737 193.861 439.033 193.985 439.29C194.849 441.199 195.151 443.315 194.856 445.39C194.562 447.465 193.682 449.413 192.321 451.007C192.136 451.226 192.046 451.51 192.069 451.796C192.092 452.082 192.226 452.347 192.443 452.534C192.659 452.72 192.939 452.812 193.223 452.792C193.507 452.771 193.771 452.64 193.958 452.425C195.593 450.508 196.647 448.163 196.994 445.667C197.342 443.171 196.97 440.627 195.922 438.335C195.793 438.08 195.569 437.886 195.299 437.795C195.029 437.703 194.733 437.721 194.476 437.844Z" fill="#E0E0E0"/>
<path d="M200.587 441.732C200.354 441.841 200.168 442.031 200.063 442.266C199.958 442.502 199.94 442.767 200.014 443.014C200.3 444.339 200.296 445.71 200.002 447.033C199.707 448.357 199.13 449.601 198.309 450.679C198.148 450.914 198.085 451.202 198.133 451.482C198.182 451.763 198.338 452.013 198.568 452.18C198.801 452.344 199.09 452.409 199.372 452.361C199.653 452.312 199.904 452.154 200.068 451.921C201.079 450.572 201.784 449.019 202.133 447.37C202.481 445.721 202.466 444.015 202.087 442.373C202.045 442.236 201.976 442.109 201.885 441.999C201.793 441.889 201.681 441.798 201.554 441.732C201.427 441.666 201.288 441.626 201.145 441.614C201.003 441.602 200.859 441.619 200.723 441.663L200.587 441.732Z" fill="#E0E0E0"/>
<path d="M274.638 63.3576C274.705 62.0857 275.073 60.8478 275.71 59.7453C276.348 58.6428 277.238 57.7072 278.307 57.015L281.281 55.2827C282.418 54.7138 283.672 54.4175 284.943 54.4175C286.215 54.4175 287.469 54.7138 288.606 55.2827L357.692 95.207C358.76 95.9008 359.649 96.8369 360.286 97.939C360.924 99.0411 361.292 100.278 361.361 101.55V137.273C361.291 138.544 360.922 139.781 360.285 140.883C359.647 141.985 358.759 142.921 357.692 143.615L354.705 145.334C353.571 145.912 352.316 146.214 351.043 146.214C349.77 146.214 348.514 145.912 347.38 145.334L278.307 105.423C277.238 104.731 276.348 103.796 275.71 102.693C275.073 101.591 274.705 100.353 274.638 99.0808V63.3576Z" fill="#1D4BB7"/>
<path opacity="0.5" d="M274.638 63.3576C274.705 62.0857 275.073 60.8478 275.71 59.7453C276.348 58.6428 277.238 57.7072 278.307 57.015L281.281 55.2827C282.418 54.7138 283.672 54.4175 284.943 54.4175C286.215 54.4175 287.469 54.7138 288.606 55.2827L357.692 95.207C358.76 95.9008 359.649 96.8369 360.286 97.939C360.924 99.0411 361.292 100.278 361.361 101.55V137.273C361.291 138.544 360.922 139.781 360.285 140.883C359.647 141.985 358.759 142.921 357.692 143.615L354.705 145.334C353.571 145.912 352.316 146.214 351.043 146.214C349.77 146.214 348.514 145.912 347.38 145.334L278.307 105.423C277.238 104.731 276.348 103.796 275.71 102.693C275.073 101.591 274.705 100.353 274.638 99.0808V63.3576Z" fill="white"/>
<path opacity="0.2" d="M361.361 137.273C361.291 138.544 360.922 139.781 360.285 140.883C359.647 141.985 358.759 142.921 357.692 143.615L354.705 145.334C353.673 145.854 352.543 146.15 351.389 146.201C350.234 146.253 349.082 146.06 348.008 145.634C349.74 146.289 351.049 145.32 351.049 143.22V107.497C351.005 106.22 350.634 104.975 349.972 103.882L360.284 97.935C360.948 99.0272 361.319 100.272 361.361 101.55V137.273Z" fill="black"/>
<path opacity="0.3" d="M274.761 62.321C275.184 60.766 276.602 60.2614 278.294 61.2434L347.38 101.154C348.468 101.821 349.361 102.762 349.972 103.882L360.27 97.935C359.661 96.8183 358.773 95.8785 357.692 95.207L288.619 55.2964C287.485 54.718 286.23 54.4164 284.957 54.4164C283.684 54.4164 282.429 54.718 281.294 55.2964L278.294 57.015C277.377 57.6146 276.591 58.394 275.984 59.306C275.376 60.218 274.96 61.2437 274.761 62.321Z" fill="white"/>
<path d="M351.036 119.05L361.334 113.103L373.746 125.051C373.933 125.239 374.075 125.467 374.16 125.718C374.246 125.969 374.273 126.236 374.24 126.498C374.207 126.761 374.115 127.013 373.971 127.235C373.826 127.457 373.633 127.643 373.405 127.779L363.271 133.672C362.851 133.891 362.379 133.991 361.907 133.958L350.995 131.871V119.05H351.036Z" fill="#1D4BB7"/>
<path opacity="0.5" d="M351.036 119.05L361.334 113.103L373.746 125.051C373.933 125.239 374.075 125.467 374.16 125.718C374.246 125.969 374.273 126.236 374.24 126.498C374.207 126.761 374.115 127.013 373.971 127.235C373.826 127.457 373.633 127.643 373.405 127.779L363.271 133.672C362.851 133.891 362.379 133.991 361.907 133.958L350.995 131.871V119.05H351.036Z" fill="white"/>
<path opacity="0.3" d="M363.271 133.672L368.727 130.548L369.368 130.125L372.287 128.434L372.642 128.216L373.419 127.766C373.646 127.63 373.84 127.443 373.984 127.221C374.129 127 374.221 126.748 374.254 126.485C374.287 126.222 374.259 125.955 374.174 125.704C374.088 125.454 373.947 125.226 373.76 125.038L361.348 113.089L351.036 119.05L363.448 130.944C363.645 131.119 363.8 131.337 363.9 131.581C364 131.825 364.043 132.088 364.026 132.351C364.009 132.614 363.932 132.87 363.801 133.099C363.67 133.328 363.489 133.524 363.271 133.672Z" fill="white"/>
<path d="M330.862 108.07C332.287 108.997 333.474 110.247 334.325 111.719C335.175 113.19 335.667 114.842 335.759 116.54C335.759 119.65 333.563 120.918 330.862 119.363C329.439 118.436 328.255 117.185 327.406 115.713C326.558 114.241 326.069 112.59 325.979 110.893C325.979 107.756 328.162 106.515 330.862 108.07Z" fill="white"/>
<path d="M312.844 97.6486C314.267 98.5763 315.451 99.827 316.3 101.299C317.149 102.771 317.637 104.422 317.727 106.119C317.727 109.229 315.545 110.497 312.844 108.929C311.422 108.003 310.239 106.754 309.391 105.285C308.542 103.815 308.052 102.166 307.961 100.472C307.988 97.3485 310.143 96.08 312.844 97.6486Z" fill="white"/>
<path d="M294.825 87.214C296.247 88.1441 297.429 89.3954 298.277 90.8668C299.125 92.3382 299.616 93.9885 299.708 95.6844C299.708 98.808 297.526 100.063 294.825 98.5079C293.398 97.5796 292.211 96.3272 291.36 94.8528C290.509 93.3784 290.019 91.7238 289.929 90.0238C289.929 86.9276 292.125 85.659 294.825 87.214Z" fill="white"/>
<path d="M141.662 133.385L146.613 124.124L142.63 112.625V105.546L154.824 112.584V119.623L149.587 128.707C149.5 128.843 149.377 128.951 149.232 129.021L141.662 133.385Z" fill="#1D4BB7"/>
<path opacity="0.2" d="M141.662 133.385L146.613 124.124L142.63 112.625V105.546L154.824 112.584V119.623L149.587 128.707C149.5 128.843 149.377 128.951 149.232 129.021L141.662 133.385Z" fill="black"/>
<path d="M104.629 59.7157C104.697 58.4474 105.063 57.213 105.698 56.1132C106.334 55.0133 107.22 54.0792 108.285 53.3868L111.258 51.6682C112.39 51.0899 113.643 50.7883 114.914 50.7883C116.185 50.7883 117.438 51.0899 118.569 51.6682L187.492 91.4833C188.552 92.1842 189.434 93.1222 190.069 94.2231C190.703 95.324 191.073 96.5575 191.148 97.8259V133.467C191.08 134.736 190.714 135.97 190.078 137.07C189.443 138.17 188.557 139.104 187.492 139.796L184.519 141.515C183.383 142.082 182.132 142.377 180.863 142.377C179.594 142.377 178.343 142.082 177.208 141.515L147.2 124.056L141.962 133.113C141.886 133.234 141.779 133.331 141.651 133.394C141.523 133.457 141.379 133.483 141.237 133.469C141.095 133.455 140.96 133.401 140.847 133.314C140.734 133.227 140.648 133.11 140.598 132.976L135.06 117.031L108.353 101.686C107.288 100.994 106.402 100.059 105.767 98.9596C105.131 97.8598 104.765 96.6254 104.697 95.3571L104.629 59.7157Z" fill="#1D4BB7"/>
<path d="M170.497 104.728L115.391 72.9056C113.754 71.9645 112.431 72.6328 112.431 74.406C112.505 75.3973 112.812 76.3573 113.326 77.208C113.841 78.0587 114.548 78.7764 115.391 79.3028L170.497 111.125C172.12 112.066 173.443 111.398 173.443 109.625C173.369 108.635 173.064 107.676 172.553 106.826C172.041 105.975 171.337 105.257 170.497 104.728Z" fill="white"/>
<path d="M170.497 118.9L115.391 87.0912C113.754 86.1501 112.431 86.8184 112.431 88.578C112.503 89.5717 112.809 90.5343 113.323 91.3876C113.838 92.2409 114.546 92.9607 115.391 93.4884L170.497 125.297C172.12 126.252 173.443 125.57 173.443 123.81C173.371 122.818 173.067 121.857 172.556 121.003C172.044 120.15 171.339 119.43 170.497 118.9Z" fill="white"/>
<path opacity="0.2" d="M191.148 133.467C191.08 134.736 190.714 135.97 190.078 137.07C189.443 138.17 188.557 139.104 187.492 139.796L184.519 141.515C183.489 142.033 182.361 142.327 181.209 142.379C180.057 142.431 178.907 142.239 177.835 141.815C179.554 142.456 180.863 141.488 180.863 139.401V103.759C180.819 102.488 180.453 101.249 179.799 100.158L190.084 94.2113C190.738 95.307 191.104 96.5505 191.148 97.8259V133.467Z" fill="black"/>
<path opacity="0.2" d="M104.752 58.6518C105.175 57.0969 106.593 56.6058 108.285 57.5743L177.208 97.4031C178.293 98.0691 179.182 99.0103 179.786 100.131L190.07 94.1977C189.458 93.0828 188.571 92.1435 187.492 91.4697L118.583 51.6409C117.446 51.0719 116.192 50.7757 114.921 50.7757C113.649 50.7757 112.395 51.0719 111.258 51.6409L108.285 53.3595C107.366 53.9546 106.579 54.731 105.972 55.641C105.365 56.5511 104.949 57.5756 104.752 58.6518Z" fill="white"/>
</svg>
