<svg width="168" height="55" viewBox="0 0 168 55" fill="none" xmlns="http://www.w3.org/2000/svg">
<path d="M0 10C0 4.47715 4.47715 0 10 0H158C163.523 0 168 4.47715 168 10V45C168 50.5228 163.523 55 158 55H10C4.47715 55 0 50.5228 0 45V10Z" fill="#1D4BB7"/>
<path d="M52.812 15.548V19.508C52.476 19.684 52.036 19.828 51.492 19.94C50.948 20.044 50.396 20.096 49.836 20.096C48.988 20.096 48.256 19.924 47.64 19.58C47.024 19.228 46.552 18.724 46.224 18.068C45.904 17.412 45.744 16.628 45.744 15.716C45.744 14.812 45.904 14.036 46.224 13.388C46.552 12.732 47.016 12.232 47.616 11.888C48.224 11.536 48.94 11.36 49.764 11.36C50.364 11.36 50.912 11.452 51.408 11.636C51.912 11.812 52.344 12.08 52.704 12.44L52.32 13.196C51.904 12.844 51.496 12.592 51.096 12.44C50.704 12.28 50.26 12.2 49.764 12.2C48.796 12.2 48.052 12.504 47.532 13.112C47.02 13.712 46.764 14.58 46.764 15.716C46.764 16.876 47.028 17.76 47.556 18.368C48.084 18.968 48.852 19.268 49.86 19.268C50.572 19.268 51.256 19.156 51.912 18.932V16.328H49.788V15.548H52.812ZM59.7653 16.952H55.3373C55.3453 17.72 55.5213 18.3 55.8653 18.692C56.2173 19.084 56.7253 19.28 57.3893 19.28C58.0933 19.28 58.7413 19.044 59.3333 18.572L59.6573 19.28C59.3933 19.528 59.0533 19.724 58.6373 19.868C58.2293 20.012 57.8093 20.084 57.3773 20.084C56.4333 20.084 55.6933 19.808 55.1573 19.256C54.6213 18.696 54.3533 17.932 54.3533 16.964C54.3533 16.348 54.4733 15.804 54.7133 15.332C54.9533 14.852 55.2893 14.48 55.7213 14.216C56.1533 13.952 56.6453 13.82 57.1973 13.82C57.9973 13.82 58.6253 14.084 59.0813 14.612C59.5373 15.132 59.7653 15.852 59.7653 16.772V16.952ZM57.2093 14.576C56.7053 14.576 56.2933 14.728 55.9733 15.032C55.6613 15.336 55.4613 15.764 55.3733 16.316H58.8893C58.8413 15.748 58.6733 15.316 58.3853 15.02C58.1053 14.724 57.7133 14.576 57.2093 14.576ZM62.5015 14.732V18.032C62.5015 18.48 62.5935 18.796 62.7775 18.98C62.9615 19.156 63.2215 19.244 63.5575 19.244C63.7815 19.244 63.9975 19.208 64.2055 19.136V19.964C63.9575 20.044 63.6775 20.084 63.3655 20.084C62.7895 20.084 62.3375 19.924 62.0095 19.604C61.6895 19.276 61.5295 18.796 61.5295 18.164V14.732H60.3535V13.964H61.5295V12.416L62.5015 12.068V13.964H64.2295V14.732H62.5015ZM68.5298 13.964H69.5018V20H68.5298V13.964ZM69.6218 11.408V12.512H68.4338V11.408H69.6218ZM72.6851 14.732V18.032C72.6851 18.48 72.7771 18.796 72.9611 18.98C73.1451 19.156 73.4051 19.244 73.7411 19.244C73.9651 19.244 74.1811 19.208 74.3891 19.136V19.964C74.1411 20.044 73.8611 20.084 73.5491 20.084C72.9731 20.084 72.5211 19.924 72.1931 19.604C71.8731 19.276 71.7131 18.796 71.7131 18.164V14.732H70.5371V13.964H71.7131V12.416L72.6851 12.068V13.964H74.4131V14.732H72.6851ZM81.2093 20.084C80.6413 20.084 80.1413 19.956 79.7093 19.7C79.2773 19.444 78.9413 19.08 78.7013 18.608C78.4693 18.136 78.3533 17.584 78.3533 16.952C78.3533 16.32 78.4693 15.768 78.7013 15.296C78.9413 14.824 79.2773 14.46 79.7093 14.204C80.1413 13.948 80.6413 13.82 81.2093 13.82C81.7773 13.82 82.2773 13.948 82.7093 14.204C83.1413 14.46 83.4733 14.824 83.7053 15.296C83.9453 15.768 84.0653 16.32 84.0653 16.952C84.0653 17.584 83.9453 18.136 83.7053 18.608C83.4733 19.08 83.1413 19.444 82.7093 19.7C82.2773 19.956 81.7773 20.084 81.2093 20.084ZM81.2093 19.28C81.8093 19.28 82.2693 19.084 82.5893 18.692C82.9093 18.292 83.0693 17.712 83.0693 16.952C83.0693 16.216 82.9053 15.648 82.5773 15.248C82.2493 14.84 81.7933 14.636 81.2093 14.636C80.6173 14.636 80.1573 14.84 79.8293 15.248C79.5013 15.648 79.3373 16.216 79.3373 16.952C79.3373 17.712 79.4973 18.292 79.8173 18.692C80.1453 19.084 80.6093 19.28 81.2093 19.28ZM88.5925 13.82C90.0405 13.82 90.7645 14.616 90.7645 16.208V20H89.7925V16.256C89.7925 15.696 89.6805 15.288 89.4565 15.032C89.2325 14.768 88.8805 14.636 88.4005 14.636C87.8405 14.636 87.3925 14.808 87.0565 15.152C86.7205 15.496 86.5525 15.96 86.5525 16.544V20H85.5805V15.656C85.5805 15.032 85.5485 14.468 85.4845 13.964H86.4085L86.5045 15.044C86.6885 14.652 86.9645 14.352 87.3325 14.144C87.7005 13.928 88.1205 13.82 88.5925 13.82Z" fill="white"/>
<path d="M58.42 35.3V42.14C57.7667 42.46 56.98 42.7133 56.06 42.9C55.14 43.0867 54.2 43.18 53.24 43.18C51.7733 43.18 50.5 42.8867 49.42 42.3C48.34 41.7133 47.5133 40.8733 46.94 39.78C46.3667 38.6867 46.08 37.38 46.08 35.86C46.08 34.3667 46.3667 33.0733 46.94 31.98C47.5133 30.8867 48.3267 30.0467 49.38 29.46C50.4467 28.8733 51.6933 28.58 53.12 28.58C54.12 28.58 55.0533 28.7267 55.92 29.02C56.8 29.3133 57.5333 29.7267 58.12 30.26L57.24 32.14C56.5733 31.62 55.92 31.2467 55.28 31.02C54.64 30.7933 53.94 30.68 53.18 30.68C51.7133 30.68 50.6 31.12 49.84 32C49.0933 32.88 48.72 34.1667 48.72 35.86C48.72 37.6067 49.1067 38.9267 49.88 39.82C50.6533 40.7 51.8067 41.14 53.34 41.14C54.2733 41.14 55.1933 41.0133 56.1 40.76V37.16H53.02V35.3H58.42ZM65.7252 43.16C64.6985 43.16 63.7918 42.9467 63.0052 42.52C62.2318 42.0933 61.6318 41.4867 61.2052 40.7C60.7918 39.9 60.5852 38.9667 60.5852 37.9C60.5852 36.8333 60.7918 35.9067 61.2052 35.12C61.6318 34.32 62.2318 33.7067 63.0052 33.28C63.7918 32.8533 64.6985 32.64 65.7252 32.64C66.7385 32.64 67.6318 32.8533 68.4052 33.28C69.1785 33.7067 69.7718 34.32 70.1852 35.12C70.6118 35.9067 70.8252 36.8333 70.8252 37.9C70.8252 38.9667 70.6118 39.9 70.1852 40.7C69.7718 41.4867 69.1785 42.0933 68.4052 42.52C67.6318 42.9467 66.7385 43.16 65.7252 43.16ZM65.7052 41.2C66.5585 41.2 67.2052 40.9267 67.6452 40.38C68.0985 39.82 68.3252 38.9933 68.3252 37.9C68.3252 36.82 68.0985 36 67.6452 35.44C67.1918 34.8667 66.5518 34.58 65.7252 34.58C64.8852 34.58 64.2385 34.8667 63.7852 35.44C63.3318 36 63.1052 36.82 63.1052 37.9C63.1052 38.9933 63.3252 39.82 63.7652 40.38C64.2185 40.9267 64.8652 41.2 65.7052 41.2ZM77.5611 43.16C76.5344 43.16 75.6278 42.9467 74.8411 42.52C74.0678 42.0933 73.4678 41.4867 73.0411 40.7C72.6278 39.9 72.4211 38.9667 72.4211 37.9C72.4211 36.8333 72.6278 35.9067 73.0411 35.12C73.4678 34.32 74.0678 33.7067 74.8411 33.28C75.6278 32.8533 76.5344 32.64 77.5611 32.64C78.5744 32.64 79.4678 32.8533 80.2411 33.28C81.0144 33.7067 81.6078 34.32 82.0211 35.12C82.4478 35.9067 82.6611 36.8333 82.6611 37.9C82.6611 38.9667 82.4478 39.9 82.0211 40.7C81.6078 41.4867 81.0144 42.0933 80.2411 42.52C79.4678 42.9467 78.5744 43.16 77.5611 43.16ZM77.5411 41.2C78.3944 41.2 79.0411 40.9267 79.4811 40.38C79.9344 39.82 80.1611 38.9933 80.1611 37.9C80.1611 36.82 79.9344 36 79.4811 35.44C79.0278 34.8667 78.3878 34.58 77.5611 34.58C76.7211 34.58 76.0744 34.8667 75.6211 35.44C75.1678 36 74.9411 36.82 74.9411 37.9C74.9411 38.9933 75.1611 39.82 75.6011 40.38C76.0544 40.9267 76.7011 41.2 77.5411 41.2ZM94.577 32.9V42.68C94.577 44.2533 94.1437 45.4467 93.277 46.26C92.4104 47.0733 91.137 47.48 89.457 47.48C87.897 47.48 86.5237 47.1533 85.337 46.5L85.737 44.6C86.9637 45.24 88.1837 45.56 89.397 45.56C91.197 45.56 92.097 44.6667 92.097 42.88V40.88C91.7904 41.4267 91.3437 41.8733 90.757 42.22C90.1704 42.5533 89.5104 42.72 88.777 42.72C87.897 42.72 87.1104 42.5133 86.417 42.1C85.737 41.6733 85.2037 41.08 84.817 40.32C84.4437 39.5467 84.257 38.6667 84.257 37.68C84.257 36.6933 84.4437 35.82 84.817 35.06C85.2037 34.2867 85.737 33.6933 86.417 33.28C87.1104 32.8533 87.897 32.64 88.777 32.64C89.5237 32.64 90.1837 32.8 90.757 33.12C91.3437 33.4267 91.7904 33.86 92.097 34.42V32.9H94.577ZM89.437 40.76C90.2637 40.76 90.9104 40.4867 91.377 39.94C91.857 39.3933 92.097 38.64 92.097 37.68C92.097 36.72 91.8637 35.9667 91.397 35.42C90.9304 34.8733 90.277 34.6 89.437 34.6C88.6104 34.6 87.957 34.8733 87.477 35.42C87.0104 35.9667 86.777 36.72 86.777 37.68C86.777 38.64 87.0104 39.3933 87.477 39.94C87.957 40.4867 88.6104 40.76 89.437 40.76ZM97.278 28.28H99.758V43H97.278V28.28ZM111.333 38.08H104.373C104.426 39.16 104.693 39.96 105.173 40.48C105.666 40.9867 106.393 41.24 107.353 41.24C108.459 41.24 109.486 40.88 110.433 40.16L111.153 41.88C110.673 42.2667 110.079 42.58 109.373 42.82C108.679 43.0467 107.973 43.16 107.253 43.16C105.599 43.16 104.299 42.6933 103.353 41.76C102.406 40.8267 101.933 39.5467 101.933 37.92C101.933 36.8933 102.139 35.98 102.553 35.18C102.966 34.38 103.546 33.76 104.293 33.32C105.039 32.8667 105.886 32.64 106.833 32.64C108.219 32.64 109.313 33.0933 110.113 34C110.926 34.8933 111.333 36.1267 111.333 37.7V38.08ZM106.893 34.44C106.226 34.44 105.679 34.64 105.253 35.04C104.839 35.4267 104.573 35.9933 104.453 36.74H109.153C109.073 35.98 108.839 35.4067 108.453 35.02C108.079 34.6333 107.559 34.44 106.893 34.44ZM119.118 28.76H125.298C126.831 28.76 128.025 29.1333 128.878 29.88C129.731 30.6133 130.158 31.62 130.158 32.9C130.158 34.18 129.725 35.1933 128.858 35.94C128.005 36.6867 126.818 37.06 125.298 37.06H121.698V43H119.118V28.76ZM124.998 35.06C125.891 35.06 126.565 34.88 127.018 34.52C127.485 34.1467 127.718 33.6133 127.718 32.92C127.718 32.2133 127.491 31.68 127.038 31.32C126.585 30.9467 125.905 30.76 124.998 30.76H121.698V35.06H124.998ZM132.258 28.28H134.738V43H132.258V28.28ZM147.133 32.9V43H144.673V41.38C144.367 41.94 143.927 42.38 143.353 42.7C142.78 43.0067 142.127 43.16 141.393 43.16C140.513 43.16 139.733 42.9467 139.053 42.52C138.373 42.0933 137.847 41.4867 137.473 40.7C137.1 39.9133 136.913 39 136.913 37.96C136.913 36.92 137.1 36 137.473 35.2C137.86 34.3867 138.393 33.76 139.073 33.32C139.753 32.8667 140.527 32.64 141.393 32.64C142.127 32.64 142.78 32.8 143.353 33.12C143.927 33.4267 144.367 33.86 144.673 34.42V32.9H147.133ZM142.073 41.2C142.9 41.2 143.54 40.9133 143.993 40.34C144.447 39.7667 144.673 38.96 144.673 37.92C144.673 36.8533 144.447 36.0333 143.993 35.46C143.54 34.8867 142.893 34.6 142.053 34.6C141.227 34.6 140.58 34.9 140.113 35.5C139.66 36.0867 139.433 36.9067 139.433 37.96C139.433 39 139.66 39.8 140.113 40.36C140.58 40.92 141.233 41.2 142.073 41.2ZM159.416 32.9L154.716 43.68C154.183 44.9333 153.503 45.8467 152.676 46.42C151.849 46.9933 150.829 47.3733 149.616 47.56L149.056 45.64C150.003 45.4267 150.709 45.1533 151.176 44.82C151.656 44.5 152.043 44.02 152.336 43.38L152.656 42.64L148.456 32.9H151.076L153.976 40.16L156.936 32.9H159.416Z" fill="white"/>
<path d="M15.625 17.2534V38.7456C15.6251 38.7922 15.6391 38.8377 15.665 38.8765C15.6909 38.9152 15.7277 38.9455 15.7707 38.9634C15.8138 38.9813 15.8612 38.9862 15.9069 38.9773C15.9527 38.9684 15.9948 38.9462 16.028 38.9134L27.2188 28L16.028 17.0855C15.9948 17.0527 15.9527 17.0305 15.9069 17.0216C15.8612 17.0128 15.8138 17.0176 15.7707 17.0355C15.7277 17.0534 15.6909 17.0837 15.665 17.1224C15.6391 17.1612 15.6251 17.2067 15.625 17.2534Z" fill="white"/>
<path d="M31.9109 23.5156L17.8792 15.785L17.8705 15.7801C17.6287 15.6488 17.3991 15.9759 17.597 16.1662L28.5963 26.6837L31.9109 23.5156Z" fill="white"/>
<path d="M17.5981 39.8338C17.399 40.0241 17.6287 40.3512 17.8715 40.2199L17.8803 40.215L31.9109 32.4844L28.5963 29.3152L17.5981 39.8338Z" fill="white"/>
<path d="M37.5755 26.6328L33.6571 24.4749L29.9728 28L33.6571 31.5235L37.5755 29.3672C38.6413 28.7782 38.6413 27.2218 37.5755 26.6328Z" fill="white"/>
</svg>
