<svg width="59" height="60" viewBox="0 0 59 60" fill="none" xmlns="http://www.w3.org/2000/svg">
<path d="M58.9988 11.1902V48.83C58.9954 49.9523 58.0865 50.8612 56.9642 50.8646H19.3245C16.3562 50.8662 13.5089 49.6877 11.41 47.5888C9.31106 45.4898 8.13269 42.6426 8.13422 39.6743V11.1902H58.9988Z" fill="#D1D4D1"/>
<path d="M50.8604 21.3631V28.4841H39.6702V20.3458H49.9275C50.4649 20.3717 50.8812 20.8256 50.8604 21.3631Z" fill="#E64C3C"/>
<path d="M50.8606 28.4841H39.6703V36.6225H50.8606V28.4841Z" fill="#B0D3F0"/>
<path d="M50.8604 36.6225V43.7435C50.8604 44.3054 50.405 44.7608 49.8431 44.7608H39.6702V36.6225H50.8604Z" fill="#90BAE1"/>
<path d="M28.4801 20.3458V28.4841H17.2899V21.3631C17.2899 20.8012 17.7453 20.3458 18.3072 20.3458H28.4801Z" fill="#E64C3C"/>
<path d="M28.4801 36.6225V44.7608H18.3072C17.7453 44.7608 17.2899 44.3054 17.2899 43.7435V36.6225H28.4801Z" fill="#90BAE1"/>
<path d="M39.6703 28.4841H28.4801V36.6225H39.6703V28.4841Z" fill="#90BAE1"/>
<path d="M39.6703 20.3458H28.4801V28.4841H39.6703V20.3458Z" fill="#FB7B76"/>
<path d="M39.6703 36.6225H28.4801V44.7608H39.6703V36.6225Z" fill="#B0D3F0"/>
<path d="M28.4801 28.4841H17.2899V36.6225H28.4801V28.4841Z" fill="#B0D3F0"/>
<path d="M12.2035 0C11.6416 0 11.1862 0.455426 11.1862 1.01729V6.10376C11.1862 6.66563 11.6416 7.12106 12.2035 7.12106C12.7654 7.12106 13.2208 6.66563 13.2208 6.10376V1.01729C13.2208 0.455426 12.7653 0 12.2035 0Z" fill="#2980BA"/>
<path d="M19.3245 0C18.7626 0 18.3072 0.455426 18.3072 1.01729V6.10376C18.3072 6.66563 18.7626 7.12106 19.3245 7.12106C19.8863 7.12106 20.3417 6.66563 20.3417 6.10376V1.01729C20.3417 0.455426 19.8863 0 19.3245 0Z" fill="#2980BA"/>
<path d="M26.4455 0C25.8836 0 25.4282 0.455426 25.4282 1.01729V6.10376C25.4282 6.66563 25.8836 7.12106 26.4455 7.12106C27.0074 7.12106 27.4628 6.66563 27.4628 6.10376V1.01729C27.4628 0.455426 27.0074 0 26.4455 0Z" fill="#2980BA"/>
<path d="M33.5666 0C33.0047 0 32.5493 0.455426 32.5493 1.01729V6.10376C32.5493 6.66563 33.0047 7.12106 33.5666 7.12106C34.1284 7.12106 34.5838 6.66563 34.5838 6.10376V1.01729C34.5838 0.455426 34.1284 0 33.5666 0Z" fill="#2980BA"/>
<path d="M40.6876 0C40.1257 0 39.6703 0.455426 39.6703 1.01729V6.10376C39.6703 6.66563 40.1257 7.12106 40.6876 7.12106C41.2495 7.12106 41.7049 6.66563 41.7049 6.10376V1.01729C41.7049 0.455426 41.2494 0 40.6876 0Z" fill="#2980BA"/>
<path d="M47.8086 0C47.2467 0 46.7913 0.455426 46.7913 1.01729V6.10376C46.7913 6.66563 47.2467 7.12106 47.8086 7.12106C48.3704 7.12106 48.8258 6.66563 48.8258 6.10376V1.01729C48.8258 0.455426 48.3704 0 47.8086 0Z" fill="#2980BA"/>
<path d="M54.9296 0C54.3678 0 53.9123 0.455426 53.9123 1.01729V6.10376C53.9123 6.66563 54.3678 7.12106 54.9296 7.12106C55.4915 7.12106 55.9469 6.66563 55.9469 6.10376V1.01729C55.9469 0.455426 55.4915 0 54.9296 0Z" fill="#2980BA"/>
<path d="M58.9988 8.13835V14.2421H8.13434V8.13835C8.13774 7.01602 9.0466 6.10716 10.1689 6.10376H56.9642C58.0865 6.10704 58.9954 7.01602 58.9988 8.13835Z" fill="#E64C3C"/>
<path d="M12.2035 11.1902C11.9338 11.1886 11.6749 11.083 11.4813 10.8952C11.0879 10.494 11.0879 9.85175 11.4813 9.4506L11.6329 9.32856C11.6901 9.29023 11.752 9.2594 11.817 9.23701C11.8747 9.20759 11.9364 9.18707 12.0001 9.17594C12.1302 9.14546 12.2658 9.14546 12.3959 9.17594C12.4635 9.18543 12.5292 9.20606 12.5901 9.23701C12.6548 9.2594 12.7164 9.29023 12.7732 9.32856L12.9259 9.4506C13.3193 9.85175 13.3193 10.494 12.9259 10.8952L12.7732 11.0172C12.7164 11.0555 12.6548 11.0864 12.5901 11.1088C12.5292 11.1397 12.4635 11.1603 12.3959 11.1698C12.3322 11.1817 12.268 11.1885 12.2035 11.1902Z" fill="#C03A2B"/>
<path d="M19.3245 11.1902C19.0547 11.1886 18.7959 11.083 18.6022 10.8952C18.2088 10.494 18.2088 9.85173 18.6022 9.45058L18.7538 9.32855C18.811 9.29022 18.8729 9.25939 18.938 9.23699C18.9956 9.20757 19.0573 9.18706 19.1211 9.17592C19.2512 9.14544 19.3867 9.14544 19.5168 9.17592C19.5845 9.18542 19.6502 9.20605 19.7111 9.23699C19.7758 9.25939 19.8373 9.29022 19.8942 9.32855L20.0468 9.45058C20.4402 9.85173 20.4402 10.494 20.0468 10.8952L19.8942 11.0172C19.8373 11.0555 19.7758 11.0864 19.7111 11.1088C19.6501 11.1397 19.5845 11.1603 19.5168 11.1698C19.4533 11.1817 19.389 11.1885 19.3245 11.1902Z" fill="#C03A2B"/>
<path d="M26.4455 11.1902C26.1757 11.1886 25.9169 11.083 25.7233 10.8952C25.3298 10.494 25.3298 9.85173 25.7233 9.45058L25.8748 9.32855C25.932 9.29022 25.9939 9.25939 26.059 9.23699C26.1167 9.20757 26.1783 9.18706 26.2421 9.17592C26.3722 9.14544 26.5077 9.14544 26.6379 9.17592C26.7055 9.18542 26.7713 9.20605 26.8322 9.23699C26.8969 9.25939 26.9585 9.29022 27.0153 9.32855L27.168 9.45058C27.5614 9.85173 27.5614 10.494 27.168 10.8952L27.0153 11.0172C26.9585 11.0555 26.8969 11.0864 26.8322 11.1088C26.7713 11.1397 26.7056 11.1603 26.6379 11.1698C26.5743 11.1817 26.5101 11.1885 26.4455 11.1902Z" fill="#C03A2B"/>
<path d="M33.5666 11.1902C33.2968 11.1886 33.038 11.083 32.8443 10.8952C32.4509 10.494 32.4509 9.85173 32.8443 9.45058L32.9959 9.32855C33.0531 9.29022 33.115 9.25939 33.1801 9.23699C33.2377 9.20757 33.2994 9.18706 33.3632 9.17592C33.4933 9.14544 33.6288 9.14544 33.7589 9.17592C33.8266 9.18542 33.8923 9.20605 33.9533 9.23699C34.018 9.25939 34.0795 9.29022 34.1364 9.32855L34.289 9.45058C34.6824 9.85173 34.6824 10.494 34.289 10.8952L34.1364 11.0172C34.0795 11.0555 34.018 11.0864 33.9533 11.1088C33.8923 11.1397 33.8267 11.1603 33.7589 11.1698C33.6954 11.1817 33.631 11.1885 33.5666 11.1902Z" fill="#C03A2B"/>
<path d="M40.6876 11.1902C40.4179 11.1886 40.159 11.083 39.9654 10.8952C39.572 10.494 39.572 9.85173 39.9654 9.45058L40.117 9.32855C40.1742 9.29022 40.2361 9.25939 40.3011 9.23699C40.3588 9.20757 40.4205 9.18706 40.4842 9.17592C40.6143 9.14544 40.7499 9.14544 40.88 9.17592C40.9476 9.18542 41.0134 9.20605 41.0743 9.23699C41.1391 9.25939 41.2006 9.29022 41.2575 9.32855L41.4101 9.45058C41.8035 9.85173 41.8035 10.494 41.4101 10.8952L41.2575 11.0172C41.2006 11.0555 41.1391 11.0864 41.0743 11.1088C41.0134 11.1397 40.9477 11.1603 40.88 11.1698C40.8163 11.1817 40.7521 11.1885 40.6876 11.1902Z" fill="#C03A2B"/>
<path d="M47.8086 11.1902C47.5388 11.1886 47.28 11.083 47.0863 10.8952C46.6929 10.494 46.6929 9.85173 47.0863 9.45058L47.2379 9.32855C47.2951 9.29022 47.357 9.25939 47.4221 9.23699C47.4797 9.20757 47.5414 9.18706 47.6052 9.17592C47.7353 9.14544 47.8708 9.14544 48.0009 9.17592C48.0686 9.18542 48.1343 9.20605 48.1953 9.23699C48.26 9.25939 48.3215 9.29022 48.3784 9.32855L48.531 9.45058C48.9244 9.85173 48.9244 10.494 48.531 10.8952L48.3784 11.0172C48.3215 11.0555 48.26 11.0864 48.1953 11.1088C48.1343 11.1397 48.0687 11.1603 48.0009 11.1698C47.9374 11.1817 47.8731 11.1885 47.8086 11.1902Z" fill="#C03A2B"/>
<path d="M54.9296 11.1902C54.6599 11.1886 54.401 11.083 54.2074 10.8952C53.814 10.494 53.814 9.85173 54.2074 9.45058L54.359 9.32855C54.4162 9.29022 54.4781 9.25939 54.5431 9.23699C54.6008 9.20757 54.6625 9.18706 54.7262 9.17592C54.8563 9.14544 54.9919 9.14544 55.122 9.17592C55.1896 9.18542 55.2554 9.20605 55.3164 9.23699C55.3811 9.25939 55.4426 9.29022 55.4995 9.32855L55.6521 9.45058C56.0455 9.85173 56.0455 10.494 55.6521 10.8952L55.4995 11.0172C55.4426 11.0555 55.3811 11.0864 55.3164 11.1088C55.2554 11.1397 55.1897 11.1603 55.122 11.1698C55.0584 11.1817 54.9942 11.1885 54.9296 11.1902Z" fill="#C03A2B"/>
<path d="M10.3031 28.1921L12.6429 31.6976C13.1091 32.3962 12.9563 33.3362 12.2929 33.8512L9.41608 36.0894C8.79232 36.5704 8.61296 37.4346 8.99395 38.124C9.83927 39.6408 10.6369 41.4343 14.6023 45.3986C18.5677 49.363 20.3601 50.1616 21.8759 51.007C22.5654 51.3874 23.4293 51.2082 23.9105 50.5849L26.1486 47.708C26.6635 47.0446 27.6036 46.8919 28.3021 47.3581L31.9186 49.7691L35.9878 52.4822C36.6991 52.9568 36.9126 53.9064 36.473 54.6399L34.5401 57.8535C34.0283 58.7217 33.2022 59.3599 32.2329 59.6358C29.0284 60.5157 21.9583 60.6927 10.6317 49.3613C-0.694848 38.0298 -0.512677 30.9673 0.362187 27.7628C0.63767 26.7932 1.27597 25.967 2.1445 25.4556L5.35816 23.5227C6.09165 23.0831 7.04106 23.2967 7.51583 24.0079L10.3031 28.1921Z" fill="#2980BA"/>
</svg>
