<svg id="Layer_1" enable-background="new 0 0 512 512" height="512" viewBox="0 0 512 512" width="512" xmlns="http://www.w3.org/2000/svg"><g><g><path d="m256 22c-135.31 0-245 109.69-245 245 0 94.772 53.817 176.968 132.552 217.716l1-.609v-18.107h222.895v18.107l1 .609c78.736-40.748 132.553-122.944 132.553-217.716 0-135.31-109.69-245-245-245z" fill="#57be92"/><path d="m345 186.512h-178c-13.557 0-25.493 6.92-32.482 17.417 10.884 6.137 19.95 15.117 26.195 25.931h223.287v-4.348c0-21.54-17.461-39-39-39z" fill="#fff"/><path d="m167 186.512c-13.557 0-25.493 6.92-32.482 17.417 10.884 6.137 19.95 15.117 26.195 25.931h12.287v-4.348c0-21.539 17.461-39 39-39z" fill="#f8f6f6"/><path d="m143.552 465v19.716c33.678 17.43 71.911 27.284 112.448 27.284s78.77-9.854 112.448-27.284v-19.716z" fill="#0182fc"/><g><path d="m186.701 90.943h10.299v-9.282c0-4.844 3.941-8.785 8.785-8.785h31.122c16.545 0 31.457-9.188 38.917-23.978 1.509-2.992 4.515-4.85 7.846-4.85h6.784c13.534 0 24.546 11.012 24.546 24.546v22.349h10.299c2.813 0 5.468.665 7.844 1.818v-39.627c0-29.345-23.789-53.134-53.134-53.134h-48.018c-29.345 0-53.134 23.789-53.134 53.134v39.628c2.376-1.153 5.031-1.819 7.844-1.819z" fill="#883f2e"/><g><path d="m220.715 53.134c0-29.345 23.789-53.134 53.134-53.134h-41.857c-29.345 0-53.134 23.789-53.134 53.134v39.628c2.376-1.153 5.031-1.818 7.844-1.818h10.298v-9.282c0-4.844 3.941-8.785 8.785-8.785h14.93z" fill="#6d3326"/></g><g><path d="m197 137.891v-47.948h-10.298c-10.525 0-19.056 8.532-19.056 19.056v13.944c0 10.525 8.532 19.056 19.056 19.056h10.503c-.133-1.351-.205-2.722-.205-4.108z" fill="#f6a96c"/><path d="m325.298 89.943h-10.298v47.947c0 1.387-.072 2.757-.205 4.109h10.503c10.525 0 19.057-8.532 19.057-19.056v-13.943c0-10.525-8.532-19.057-19.057-19.057z" fill="#ffbd86"/></g><path d="m273.423 179.467h-34.846c-2.223 0-4.404-.18-6.534-.518v19.094c0 13.231 10.726 23.957 23.957 23.957s23.957-10.726 23.957-23.956v-19.094c-2.13.337-4.311.517-6.534.517z" fill="#ffbd86"/><path d="m257.087 198.044v-18.576h-18.51c-2.223 0-4.404-.18-6.534-.518v19.094c0 13.23 10.726 23.956 23.957 23.956 4.59 0 8.878-1.293 12.522-3.532-6.859-4.214-11.435-11.784-11.435-20.424z" fill="#f6a96c"/><g><path d="m290.454 43.048h-6.784c-3.701 0-7.072 2.096-8.739 5.4-7.009 13.895-21.399 23.428-38.024 23.428h-31.122c-5.404 0-9.785 4.381-9.785 9.785v56.229c0 23.515 19.062 42.577 42.577 42.577h34.846c23.515 0 42.577-19.062 42.577-42.577v-69.296c0-14.108-11.437-25.546-25.546-25.546z" fill="#fed2a4"/></g><g><path d="m226 137.891v-56.23c0-5.404 4.381-9.785 9.785-9.785h-30c-5.404 0-9.785 4.381-9.785 9.785v56.229c0 23.515 19.062 42.577 42.577 42.577h30c-23.515 0-42.577-19.062-42.577-42.576z" fill="#ffbd86"/></g></g><g><g><g><path d="m226.179 108.313c-4.143 0-7.5-3.358-7.5-7.5v-9.301c0-4.142 3.357-7.5 7.5-7.5s7.5 3.358 7.5 7.5v9.301c0 4.142-3.358 7.5-7.5 7.5z" fill="#d88a55"/></g><g><path d="m285 108.313c-4.143 0-7.5-3.358-7.5-7.5v-9.301c0-4.142 3.357-7.5 7.5-7.5s7.5 3.358 7.5 7.5v9.301c0 4.142-3.357 7.5-7.5 7.5z" fill="#d88a55"/></g></g><g><path d="m257.578 161.334c-9.139 0-17.733-3.562-24.202-10.031-2.929-2.929-2.929-7.678.001-10.606 2.929-2.93 7.678-2.929 10.606 0 3.635 3.635 8.463 5.638 13.595 5.638 5.131 0 9.959-2.002 13.594-5.638 2.93-2.929 7.679-2.93 10.606 0 2.93 2.929 2.93 7.677.001 10.606-6.468 6.469-15.063 10.031-24.201 10.031z" fill="#d88a55"/></g><g><path d="m262 129.5h-6c-5.79 0-10.5-4.71-10.5-10.5v-14c0-4.142 3.357-7.5 7.5-7.5s7.5 3.358 7.5 7.5v9.5h1.5c4.143 0 7.5 3.358 7.5 7.5s-3.357 7.5-7.5 7.5z" fill="#d88a55"/></g></g><g><path d="m436.745 228.86h-276.608c6.256 10.428 9.863 22.619 9.863 35.64 0 38.322-31.178 69.5-69.5 69.5-10.851 0-21.128-2.504-30.288-6.958v133.915c0 2.785 2.258 5.043 5.042 5.043h361.49c2.785 0 5.042-2.258 5.042-5.043v-227.055c.002-2.785-2.256-5.042-5.041-5.042z" fill="#9c9c9c"/><path d="m422.221 244.86h-155.807l-1 1.502v57.429l30.527 21.749c1.022.729 2.226 1.114 3.479 1.113 1.621 0 3.14-.635 4.276-1.79l14.778-15.003-10.024 20.771c-1.287 2.669-.458 5.836 1.974 7.53l7.23 5.041c1.013.705 2.198 1.078 3.432 1.078 1.297 0 2.532-.409 3.574-1.181l11.448-8.491-6.81 9.181c-.976 1.314-1.367 2.928-1.103 4.542.264 1.615 1.148 3.019 2.491 3.954l8.207 5.722-31.43-10.217c-.604-.196-1.23-.296-1.858-.296-2.917 0-5.401 2.087-5.907 4.964l-.01.056-.003.057c-.124 2.022.473 4.031 1.68 5.657l9.5 12.809-9.912-7.352c-.348-.258-.759-.395-1.188-.395-1.002 0-1.835.718-1.981 1.708l-1.784 12.041c-.011 0-.019-.002-.021-.003l-5.321-34.455-31.177-22.212c-1.022-.728-2.227-1.113-3.481-1.113s-2.459.385-3.481 1.113l-34.947 24.898c-1.322.941-2.216 2.401-2.454 4.007l-4.118 27.765-1.785-12.042c-.147-.99-.981-1.708-1.981-1.708-.43 0-.841.136-1.188.395l-9.912 7.351 9.57-12.904c1.156-1.557 1.754-3.483 1.683-5.423l-.01-.111c-.434-2.92-2.983-5.122-5.932-5.122-.629 0-1.254.1-1.859.296l-31.481 10.233 8.209-5.722c1.342-.935 2.227-2.34 2.49-3.955.265-1.615-.127-3.228-1.103-4.542l-6.811-9.181 11.449 8.491c1.042.772 2.277 1.181 3.574 1.181 1.233 0 2.42-.373 3.432-1.078l12.475-8.695c2.291-1.597 3.176-4.527 2.15-7.125l-6.629-16.784 10.932 13.562c1.145 1.42 2.848 2.235 4.674 2.235 1.253 0 2.456-.385 3.479-1.113l30.161-21.488v-57.692l-1-1.239h-78.43c1.84 6.232 2.844 12.82 2.844 19.64 0 38.322-31.178 69.5-69.5 69.5-4.696 0-9.283-.474-13.721-1.366v114.367c0 1.657 1.343 3 3 3h332.442c1.657 0 3-1.343 3-3v-199.14c-.001-1.657-1.344-3-3.001-3z" fill="#5a5a5a"/><path d="m128.558 447v-118.938c-8.588 3.806-18.076 5.938-28.058 5.938-4.696 0-9.283-.474-13.721-1.366v114.366c0 1.657 1.343 3 3 3h41.779c-1.657 0-3-1.343-3-3z" fill="#444"/><g><g><path d="m230.587 291.944v105.163c-.316 7.685-5.068 14.358-11.93 16.75l-58.311 20.323c-11.913 4.152-23.927-6.122-22.64-19.407 3.61-37.273 17.645-103.069 70.643-139.272 11.772-8.041 22.849 1.558 22.238 16.443z" fill="#fe646f"/></g><path d="m168.095 414.773c3.385-34.946 15.933-94.965 61.167-132.16-3.237-9.048-11.866-13.291-20.913-7.112-52.998 36.203-67.033 101.999-70.643 139.272-1.287 13.284 10.727 23.559 22.64 19.407l12.774-4.452c-3.525-3.714-5.599-9.033-5.025-14.955z" fill="#fd4755"/><g><path d="m281.413 291.944v105.163c.316 7.685 5.068 14.358 11.93 16.75l58.311 20.323c11.913 4.152 23.927-6.122 22.64-19.407-3.61-37.273-17.645-103.069-70.643-139.272-11.772-8.041-22.849 1.558-22.238 16.443z" fill="#fe646f"/></g><path d="m372.265 424.066-58.311-20.323c-6.862-2.392-11.615-9.064-11.93-16.75v-105.162c-.102-2.491.129-4.828.63-6.965-11.392-6.854-21.835 2.614-21.241 17.079v105.163c.315 7.685 5.068 14.358 11.93 16.75l58.311 20.323c8.841 3.081 17.731-1.786 21.206-9.929-.198-.062-.397-.116-.595-.186z" fill="#fd4755"/></g><path d="m339.468 357.185-8.208-5.721c-2.313-1.612-2.836-4.816-1.157-7.081l6.81-9.182c.685-.924-.475-2.084-1.399-1.399l-11.448 8.491c-1.725 1.28-4.075 1.314-5.838.086l-7.231-5.04c-2.015-1.404-2.711-4.063-1.644-6.275l10.023-20.77c.491-1.018-.82-1.942-1.613-1.136l-14.778 15.003c-1.724 1.75-4.463 1.989-6.463.564l-30.107-21.45v-58.415h-20.828v58.415l-29.741 21.189c-2.155 1.535-5.134 1.126-6.794-.935l-10.93-13.562c-.719-.892-2.13-.071-1.709.995l6.627 16.784c.851 2.155.11 4.613-1.792 5.938l-12.475 8.695c-1.762 1.228-4.112 1.194-5.838-.086l-11.449-8.491c-.924-.685-2.084.475-1.399 1.399l6.81 9.181c1.679 2.264 1.156 5.469-1.157 7.081l-8.209 5.722c-.944.658-.213 2.127.881 1.771l31.482-10.234c2.942-.956 6.038.962 6.492 4.022.063 1.719-.461 3.409-1.486 4.791l-9.571 12.904c-.685.924.475 2.084 1.399 1.399l9.911-7.352c.607-.45 1.474-.091 1.585.657l1.786 12.042c.169 1.138 1.81 1.138 1.978 0l4.117-27.765c.199-1.345.938-2.55 2.045-3.339l34.948-24.898c1.736-1.237 4.066-1.237 5.802 0l31.1 22.212 5.011 33.79c.169 1.138 1.81 1.138 1.979 0l1.786-12.042c.111-.747.978-1.106 1.585-.656l9.911 7.351c.924.685 2.084-.475 1.399-1.399l-9.5-12.809c-1.068-1.44-1.594-3.211-1.484-5.001.526-2.994 3.579-4.83 6.47-3.89l31.431 10.217c1.093.356 1.823-1.113.88-1.771z" fill="#fd8087"/><g><g><g><circle cx="364.5" cy="264.355" fill="#f8f6f6" r="7.5"/></g></g><g><g><circle cx="384.5" cy="264.355" fill="#f8f6f6" r="7.5"/></g></g><g><g><circle cx="404.5" cy="264.355" fill="#9c9c9c" r="7.5"/></g></g><g><g><circle cx="404.5" cy="388.5" fill="#f8f6f6" r="7.5"/></g></g></g></g><g><g><g><circle cx="100.5" cy="264.5" fill="#838383" r="70.5"/></g><g><circle cx="100.5" cy="264.5" fill="#eaf6ff" r="53.063"/></g><g><path d="m79.305 264.5c0-23.754 15.609-43.859 37.129-50.625-5.03-1.582-10.382-2.438-15.934-2.438-29.306 0-53.063 23.757-53.063 53.063s23.757 53.063 53.063 53.063c5.552 0 10.904-.856 15.934-2.438-21.52-6.766-37.129-26.871-37.129-50.625z" fill="#d8ecfe"/></g></g><g><path d="m90.642 230.834 2.492 8.46c.251.852 1.28 1.187 1.984.645l6.989-5.379c.999-.769 2.385.238 1.963 1.426l-2.956 8.309c-.298.837.338 1.713 1.226 1.688l8.816-.244c1.261-.035 1.79 1.595.75 2.307l-7.275 4.984c-.733.502-.733 1.584 0 2.086l7.275 4.984c1.04.713.511 2.342-.75 2.307l-8.816-.244c-.888-.025-1.524.851-1.226 1.688l2.956 8.309c.423 1.188-.963 2.195-1.963 1.426l-6.989-5.379c-.704-.542-1.733-.208-1.984.645l-2.492 8.46c-.356 1.21-2.07 1.21-2.426 0l-2.492-8.46c-.251-.852-1.28-1.187-1.984-.645l-6.989 5.379c-.999.769-2.385-.238-1.963-1.426l2.956-8.309c.298-.837-.338-1.713-1.226-1.688l-8.816.244c-1.261.035-1.79-1.595-.75-2.307l7.275-4.984c.733-.502.733-1.584 0-2.086l-7.275-4.984c-1.04-.713-.511-2.342.75-2.307l8.816.244c.888.025 1.524-.851 1.226-1.688l-2.956-8.309c-.423-1.188.963-2.195 1.963-1.426l6.989 5.379c.704.542 1.733.208 1.984-.645l2.492-8.46c.357-1.21 2.07-1.21 2.426 0z" fill="#fe646f"/></g><g><circle cx="102.62" cy="294.683" fill="#fe646f" r="8.78"/></g><g><circle cx="123.473" cy="272.732" fill="#fe646f" r="5.488"/></g></g><g><path d="m266 270.355h-20c-4.143 0-7.5-3.358-7.5-7.5s3.357-7.5 7.5-7.5h20c4.143 0 7.5 3.358 7.5 7.5s-3.357 7.5-7.5 7.5z" fill="#fe99a0"/></g><g><path d="m266 294.355h-20c-4.143 0-7.5-3.358-7.5-7.5s3.357-7.5 7.5-7.5h20c4.143 0 7.5 3.358 7.5 7.5s-3.357 7.5-7.5 7.5z" fill="#fe99a0"/></g><path d="m87 253.5c0-6.174 2.035-11.872 5.47-16.462l-1.828-6.204c-.356-1.21-2.07-1.21-2.426 0l-2.492 8.46c-.251.852-1.28 1.187-1.984.645l-6.989-5.379c-.999-.769-2.385.238-1.963 1.426l2.956 8.309c.298.837-.338 1.713-1.226 1.688l-8.816-.244c-1.261-.035-1.79 1.595-.75 2.307l7.276 4.984c.733.502.733 1.584 0 2.086l-7.276 4.984c-1.04.713-.511 2.342.75 2.307l8.816-.244c.888-.025 1.524.851 1.226 1.688l-2.956 8.309c-.423 1.188.964 2.195 1.963 1.426l6.989-5.379c.704-.542 1.733-.208 1.984.645l2.492 8.46c.356 1.21 2.07 1.21 2.426 0l2.073-7.038c-3.58-4.642-5.715-10.457-5.715-16.774z" fill="#fd4755"/></g><g><path d="m404.5 430.155c-4.143 0-7.5-3.358-7.5-7.5v-12.155c0-4.142 3.357-7.5 7.5-7.5s7.5 3.358 7.5 7.5v12.155c0 4.142-3.357 7.5-7.5 7.5z" fill="#9c9c9c"/></g></g></svg>